<?xml version="1.0" encoding="utf-8"?>
<!-- Generator: Adobe Illustrator 16.0.0, SVG Export Plug-In . SVG Version: 6.00 Build 0)  -->
<!DOCTYPE svg PUBLIC "-//W3C//DTD SVG 1.1//EN" "http://www.w3.org/Graphics/SVG/1.1/DTD/svg11.dtd">
<svg version="1.1"
	 id="Средневековые_кубки_копия__x2B__glass-goblet-icon-72390__x2B__Цветовой_тон_x2F_Насыщенность_1_xA0_Image_1_"
	 xmlns="http://www.w3.org/2000/svg" xmlns:xlink="http://www.w3.org/1999/xlink" x="0px" y="0px" width="287.083px"
	 height="119.924px" viewBox="0 0 287.083 119.924" enable-background="new 0 0 287.083 119.924" xml:space="preserve">
<g>
	<g>
		<path fill="none" stroke="#FFFFFF" stroke-width="2" d="M26.726,10.496c-0.1,0.2-0.184,0.367-0.25,0.5
			c-0.334,0.633-0.567,1.117-0.7,1.45c-0.233,0.6-0.55,1.017-0.95,1.25c-0.934,0.767-2.5,1.15-4.7,1.15
			c-0.867,0-2.167-0.083-3.9-0.25c-2.867,0-5,0.3-6.4,0.9c-1.4,0.6-2.1,1.633-2.1,3.1l0.15,1.7c0.033,0.467,0.333,0.842,0.9,1.125
			c0.566,0.284,1.033,0.458,1.4,0.525l-0.2,0.15c-0.067,0.034-0.334,0.084-0.8,0.15l-1.05-0.15l-1.2-0.65
			c-0.567-0.4-1-0.883-1.3-1.45c-0.234-0.7-0.35-1.483-0.35-2.35v-0.85v-1c0.2-2.267,1.186-4.066,2.957-5.4
			c1.538-1.167,3.241-1.75,5.113-1.75c2.372,0,4.478,0.617,6.315,1.85c1.838,1.233,3.058,1.85,3.66,1.85
			c0.634,0,1.111-0.166,1.428-0.5c0.317-0.333,0.477-0.883,0.477-1.65c0-0.633,0.141-1.108,0.425-1.425
			c0.283-0.316,0.642-0.441,1.075-0.375c0.333,0.1,0.5,0.434,0.5,1C27.226,9.896,27.058,10.263,26.726,10.496z M34.976,10.446
			c-0.1,0.295-0.2,0.615-0.3,0.958s-0.267,0.729-0.5,1.154c-0.767,1.474-1.717,2.522-2.85,3.145l-0.9,0.393l-0.85,0.1l-0.8-0.05
			l-1.9-0.05h-0.5l-0.5,0.15v23.1l1.8,0.3l1.85,0.15c1.2,0,2.5-0.2,3.9-0.6l0.9-0.301l-2.85,3.027
			c-0.134,0.133-0.342,0.396-0.625,0.793c-0.284,0.397-0.559,0.777-0.825,1.141l-0.65,0.992l-1.4,0.199
			c-1.067,0.133-1.842,0.207-2.325,0.223c-0.483,0.018-0.875,0.025-1.175,0.025c-0.934,0-1.842-0.049-2.725-0.149
			c-0.884-0.1-1.759-0.249-2.625-0.449c-0.867-0.199-1.667-0.481-2.4-0.847c-0.734-0.365-1.4-0.848-2-1.446
			c-1.567-1.562-2.617-2.741-3.15-3.539c-1.367-2.126-2.05-4.586-2.05-7.377c0-2.459,0.4-4.67,1.2-6.631
			c0.566-1.428,1.466-2.857,2.7-4.287c0.367-0.398,0.8-0.814,1.3-1.246s1.033-0.848,1.6-1.246c1.133-0.831,2.433-1.478,3.9-1.944
			c1.466-0.465,3.216-0.848,5.25-1.146c0.866-0.1,1.5-0.515,1.9-1.246l0.85-1.396l1.3-2.042l0.25-0.358l0.85,0.45
			c0.266,0.133,0.566,0.233,0.9,0.3c0.333,0.067,0.6,0.117,0.8,0.15l1.75-0.15L34.976,10.446z M22.925,16.846l-0.6-0.05
			c-0.934,0-1.833,0.217-2.7,0.65c-1.367,0.634-2.7,1.8-4,3.5c-0.434,0.534-0.817,1.417-1.15,2.65c-0.1,0.6-0.184,1.175-0.25,1.725
			c-0.067,0.55-0.1,1.142-0.1,1.775c0,1.4,0.119,2.4,0.356,3l0.915,2.35c0.44,0.9,1.017,1.417,1.729,1.55l0.087-1.4l0.263-4.7v-0.8
			c0-1.666-0.084-2.966-0.25-3.9c-0.1-0.933-0.317-1.616-0.65-2.05l0.55-0.15c0.8-0.267,1.325-0.467,1.575-0.6
			c0.25-0.133,0.642-0.383,1.175-0.75c0.833-0.533,1.583-1.15,2.25-1.85L22.925,16.846z M25.375,39.196V16.346
			c-0.692,0.268-1.263,0.65-1.712,1.15c-0.45,0.5-0.718,0.967-0.804,1.4c-0.086,0.434-0.147,0.842-0.182,1.225
			c-0.034,0.383-0.051,0.975-0.051,1.775v2.9l0.3,4.7v1.55l-0.95,0.45l-2.2,1.4c-0.6,0.4-1.233,0.917-1.9,1.55l-0.75,0.699l1.05,0.9
			C20.075,37.546,22.476,38.596,25.375,39.196z"/>
		<path fill="none" stroke="#FFFFFF" stroke-width="2" d="M54.825,36.996c-0.067,0.667-0.125,1.1-0.175,1.3
			c-0.05,0.2-0.159,0.483-0.325,0.85c-0.667,1.534-1.884,2.734-3.65,3.601c-1.034,0.467-1.8,1.2-2.3,2.2l-0.45,1.3
			c-0.3-0.434-0.75-0.733-1.35-0.9l-0.8-0.05v6.35v2.301c0,0.332,0.116,0.683,0.35,1.05l0.3,0.45l-1.2-0.95
			c-0.2-0.134-0.4-0.417-0.6-0.851l-0.2-0.6l-0.6,0.75c-0.333,0.433-0.567,0.732-0.7,0.9c-0.267,0.332-0.5,0.6-0.7,0.8
			c-0.367,0.5-1.067,0.866-2.1,1.1l-1.35,0.25l0.7-0.85c0.466-0.601,0.783-1.184,0.95-1.75l0.35-1.65l0.05-0.85v-1.05v-7.25
			l0.05-14.95v-0.5c-0.134-0.7-0.55-1.117-1.25-1.25l1.85-1.85c0.4-0.5,0.616-0.767,0.65-0.8c0.2-0.266,0.4-0.6,0.6-1l0.25-0.35
			l0.65,0.55c0.433,0.333,0.85,0.767,1.25,1.3l0.75,1.5c0.1,0.3,0.2,0.518,0.3,0.65c0.867,0,1.583-0.217,2.15-0.65
			c0.1-0.1,0.3-0.325,0.6-0.675c0.3-0.35,0.517-0.625,0.65-0.825c0.266-0.333,0.583-0.85,0.95-1.55l0.4-0.8l0.65,0.4
			c1.033,0.667,1.683,1.167,1.95,1.5c0.267,0.333,0.583,0.85,0.95,1.55l0.4,0.95V36.996z M49.875,42.296v-12.15l-0.2-1.15
			c-0.3-0.833-0.884-1.25-1.75-1.25c-0.7,0-1.217,0.383-1.55,1.15l-0.25,1.15v10.75l0.2,0.4c0.133,0.199,0.366,0.417,0.7,0.649
			l1.2,0.351C48.525,42.263,49.075,42.296,49.875,42.296z"/>
		<path fill="none" stroke="#FFFFFF" stroke-width="2" d="M73.425,38.596c0,0.601-0.284,1.3-0.85,2.101
			c-0.434,0.633-0.95,1.199-1.55,1.699c-0.334,0.2-0.8,0.768-1.4,1.7l-0.8,1.2h-0.85c-0.767,0-1.35-0.05-1.75-0.15
			c-0.867-0.199-1.559-0.582-2.075-1.149c-0.518-0.566-0.992-1.25-1.425-2.05c-0.434-0.801-0.65-1.533-0.65-2.2v-13.3h0.55
			c0.3,0,0.642-0.008,1.025-0.025c0.383-0.017,0.857-0.075,1.425-0.175c0.566-0.1,1.083-0.383,1.55-0.85c0.467-0.466,1-1.133,1.6-2
			l0.75-1.15c0.333,0.033,0.633,0.133,0.9,0.3c0.6,0.233,1.208,0.708,1.825,1.425c0.616,0.717,1.058,1.509,1.325,2.375l0.15,0.45
			l-0.15,1.1c-0.067,0.4-0.15,0.733-0.25,1c-0.1,0.267-0.268,0.534-0.5,0.8l-3.15,3.45c-0.167,0.168-0.317,0.334-0.45,0.5
			c-0.3,0.367-0.583,0.784-0.85,1.25l-0.55,0.851v3c0,0.667,0.3,1.25,0.9,1.75c0.266,0.167,0.575,0.317,0.925,0.45
			s0.675,0.199,0.975,0.199c0.533,0,0.991-0.216,1.375-0.649c0.383-0.433,0.575-0.9,0.575-1.4c0-0.232-0.067-0.482-0.2-0.75
			l-0.5-1.25c0-0.232,0.116-0.416,0.35-0.55c0.233-0.133,0.417-0.2,0.55-0.2c0.367,0,0.658,0.233,0.875,0.7
			C73.316,37.513,73.425,38.029,73.425,38.596z M69.725,30.046c0-0.466-0.275-1.116-0.825-1.95c-0.55-0.833-1.092-1.25-1.625-1.25
			v6.7l1.75-1.8C69.492,31.18,69.725,30.613,69.725,30.046z"/>
		<path fill="none" stroke="#FFFFFF" stroke-width="2" d="M93.5,25.171c-0.217,2.05-0.325,4.792-0.325,8.225l0.05,6.25
			c0.167,1.268,0.55,1.95,1.15,2.051l-1,0.449l-2.35,1.051c-0.567,0.333-1.067,0.633-1.5,0.899c-0.167,0.101-0.45,0.284-0.85,0.55
			l-1,0.65c-0.267-0.533-0.517-0.916-0.75-1.15c-0.5-0.6-1.1-1.149-1.8-1.649c-1.2-0.833-2.55-1.383-4.05-1.65l-0.9-0.1v-14.7
			l0.5-1.15c0.533-0.8,0.925-1.3,1.175-1.5c0.25-0.2,0.5-0.358,0.75-0.475c0.25-0.116,0.542-0.241,0.875-0.375l1.05-0.35l0.65,0.95
			l1.15,1.4c0.1,0.1,0.308,0.259,0.625,0.475c0.316,0.217,0.575,0.392,0.775,0.525l0.8,0.4l0.15-1.85l0.35-1.65l0.6-1.5l0.35-0.75
			l-1.65,0.25c-1.434,0.167-2.55,0.25-3.35,0.25c-1.233,0-2.583-0.316-4.05-0.95c-1.367-0.667-2.167-1.467-2.4-2.4l-0.2-1.2
			l-0.05-1.2l0.15-1.8v-0.4c0.367,1.067,0.667,1.783,0.9,2.15c1,1.4,2.433,2.1,4.3,2.1c2.267,0,3.9-0.45,4.9-1.35l0.45-0.6
			c0.133,0.8,0.316,1.45,0.55,1.95c0.366,0.8,0.833,1.483,1.4,2.05c0.9,1,1.917,1.817,3.05,2.45l0.65,0.35
			C94.091,22.013,93.716,23.121,93.5,25.171z M89.375,39.096c-0.033-0.166-0.059-0.291-0.075-0.375
			c-0.017-0.083-0.042-0.175-0.075-0.274l-0.55-1.25v-9.351l-0.75-0.95c-0.267-0.4-0.65-0.6-1.15-0.6
			c-0.234,0.067-0.434,0.2-0.6,0.4l-0.7,0.8c-0.3,0.3-0.5,0.667-0.6,1.1l-0.1,0.6l0.1,12.1l0.5,0.15
			c0.267-0.033,0.55-0.176,0.85-0.426c0.3-0.25,0.617-0.457,0.95-0.625l1.3-0.3l0.95-0.2L89.375,39.096z"/>
		<path fill="none" stroke="#FFFFFF" stroke-width="2" d="M106.625,28.646c0,0.1,0,0.483,0,1.15v3.3l3.65-0.35v-3.8v-2.05l-0.7-0.8
			l1.15-2.1l1.5-1.35l0.95-0.4l1.05,1.1l0.8,0.7l0.9,1.6l-1.1,0.95v13.15c0,0.5,0.3,0.833,0.9,1l0.95,0.05l-0.65,0.65l-1.05,1.199
			l-0.9,1.65l-0.55,1l-1.55-1.75l-1-1l-0.7-0.55v-7.101l-3.65,0.351v3.6c0,0.9,0.3,1.601,0.9,2.101c0.1,0.1,0.4,0.233,0.9,0.399
			l-0.6,0.5l-1.15,1.05c-0.1,0.101-0.25,0.334-0.45,0.7c-0.2,0.367-0.367,0.7-0.5,1l-0.25,0.601l-0.55-0.9
			c-0.133-0.232-0.325-0.525-0.575-0.875s-0.409-0.558-0.475-0.625c-0.234-0.232-0.8-0.616-1.7-1.15l-0.05-2.8v-10.95
			c0-0.667-0.284-1.183-0.85-1.55l-0.8-0.4l0.5-0.4l1.15-1.1l1.65-2.3l0.6,0.3l2.25,2l0.6,1.1l0.35,0.4l-0.6,0.4
			C106.741,26.713,106.625,27.479,106.625,28.646z"/>
		<path fill="none" stroke="#FFFFFF" stroke-width="2" d="M133.825,38.596c0,0.601-0.284,1.3-0.85,2.101
			c-0.434,0.633-0.95,1.199-1.55,1.699c-0.334,0.2-0.8,0.768-1.4,1.7l-0.8,1.2h-0.85c-0.767,0-1.35-0.05-1.75-0.15
			c-0.867-0.199-1.559-0.582-2.075-1.149c-0.518-0.566-0.992-1.25-1.425-2.05c-0.434-0.801-0.65-1.533-0.65-2.2v-13.3h0.55
			c0.3,0,0.642-0.008,1.025-0.025c0.383-0.017,0.857-0.075,1.425-0.175c0.566-0.1,1.083-0.383,1.55-0.85c0.467-0.466,1-1.133,1.6-2
			l0.75-1.15c0.333,0.033,0.633,0.133,0.9,0.3c0.6,0.233,1.208,0.708,1.825,1.425c0.616,0.717,1.058,1.509,1.325,2.375l0.15,0.45
			l-0.15,1.1c-0.067,0.4-0.15,0.733-0.25,1c-0.1,0.267-0.268,0.534-0.5,0.8l-3.15,3.45c-0.167,0.168-0.317,0.334-0.45,0.5
			c-0.3,0.367-0.583,0.784-0.85,1.25l-0.55,0.851v3c0,0.667,0.3,1.25,0.9,1.75c0.266,0.167,0.575,0.317,0.925,0.45
			s0.675,0.199,0.975,0.199c0.533,0,0.991-0.216,1.375-0.649c0.383-0.433,0.575-0.9,0.575-1.4c0-0.232-0.067-0.482-0.2-0.75
			l-0.5-1.25c0-0.232,0.116-0.416,0.35-0.55c0.233-0.133,0.417-0.2,0.55-0.2c0.367,0,0.658,0.233,0.875,0.7
			C133.716,37.513,133.825,38.029,133.825,38.596z M130.125,30.046c0-0.466-0.275-1.116-0.825-1.95
			c-0.55-0.833-1.092-1.25-1.625-1.25v6.7l1.75-1.8C129.891,31.18,130.125,30.613,130.125,30.046z"/>
		<path fill="none" stroke="#FFFFFF" stroke-width="2" d="M140.924,29.046v-0.75c0.066-0.9-0.25-1.417-0.95-1.55l1.85-1.85
			c0.4-0.5,0.616-0.767,0.65-0.8c0.2-0.266,0.4-0.6,0.6-1l0.25-0.35l0.65,0.55c0.433,0.333,0.851,0.767,1.25,1.3l0.8,1.65
			c0.434,0.167,1.033-0.05,1.801-0.65l1.1-1.45l1.199-1.35l0.4-0.25l0.551,0.2l0.25,0.2l0.85,0.7l0.85,0.9
			c0.5,0.8,0.75,1.367,0.75,1.7c0,0.434-0.059,0.758-0.175,0.975c-0.117,0.217-0.458,0.842-1.024,1.875
			c-0.201,0.3-0.5,0.667-0.9,1.1l-0.85,0.85l1.5,1.3l0.949,1.25l0.45,0.601v2.85c0,0.733-0.25,1.45-0.75,2.15
			c-0.601,0.899-1.534,1.617-2.8,2.149c-0.967,0.367-1.934,1.15-2.9,2.351l-1.05,1.6l-2.9-2.6l-2.4-1.9l-0.95-0.65
			c0.267-0.066,0.483-0.191,0.65-0.375c0.167-0.183,0.267-0.457,0.3-0.824V29.046z M149.075,40.896v-6.649
			c0-0.333-0.117-0.65-0.351-0.95s-0.567-0.45-1-0.45c-0.367,0-0.767,0.218-1.2,0.65c-0.434,0.434-0.65,0.817-0.65,1.149v3.2
			l0.25,0.65c0.201,0.467,0.451,0.85,0.75,1.149C147.474,40.479,148.208,40.896,149.075,40.896z M149.274,28.546l0.1-0.45
			c0-0.366-0.174-0.683-0.524-0.95c-0.351-0.267-0.608-0.4-0.774-0.4c-0.367,0-0.768,0.2-1.201,0.6l-0.899,1v3.55h0.601
			c0.532-0.133,0.932-0.283,1.199-0.45C148.607,30.513,149.107,29.546,149.274,28.546z"/>
		<path fill="none" stroke="#FFFFFF" stroke-width="2" d="M172.274,38.596c0,0.601-0.283,1.3-0.85,2.101
			c-0.434,0.633-0.951,1.199-1.551,1.699c-0.334,0.2-0.8,0.768-1.4,1.7l-0.799,1.2h-0.851c-0.767,0-1.351-0.05-1.75-0.15
			c-0.867-0.199-1.559-0.582-2.075-1.149c-0.518-0.566-0.992-1.25-1.425-2.05c-0.434-0.801-0.649-1.533-0.649-2.2v-13.3h0.549
			c0.301,0,0.643-0.008,1.025-0.025c0.383-0.017,0.857-0.075,1.426-0.175c0.566-0.1,1.082-0.383,1.549-0.85
			c0.467-0.466,1-1.133,1.601-2l0.75-1.15c0.333,0.033,0.633,0.133,0.899,0.3c0.601,0.233,1.209,0.708,1.826,1.425
			c0.615,0.717,1.057,1.509,1.324,2.375l0.15,0.45l-0.15,1.1c-0.066,0.4-0.15,0.733-0.25,1c-0.1,0.267-0.268,0.534-0.5,0.8
			l-3.15,3.45c-0.166,0.168-0.316,0.334-0.449,0.5c-0.301,0.367-0.584,0.784-0.85,1.25l-0.551,0.851v3c0,0.667,0.301,1.25,0.9,1.75
			c0.266,0.167,0.574,0.317,0.925,0.45s0.675,0.199,0.976,0.199c0.532,0,0.99-0.216,1.375-0.649c0.383-0.433,0.574-0.9,0.574-1.4
			c0-0.232-0.066-0.482-0.199-0.75l-0.5-1.25c0-0.232,0.115-0.416,0.35-0.55c0.232-0.133,0.416-0.2,0.55-0.2
			c0.366,0,0.657,0.233,0.875,0.7C172.165,37.513,172.274,38.029,172.274,38.596z M168.574,30.046c0-0.466-0.274-1.116-0.825-1.95
			c-0.55-0.833-1.092-1.25-1.625-1.25v6.7l1.75-1.8C168.34,31.18,168.574,30.613,168.574,30.046z"/>
		<path fill="none" stroke="#FFFFFF" stroke-width="2" d="M194.374,40.596l-0.6,0.601c-0.533,0.5-0.9,0.917-1.1,1.25l-1,1.55
			l-0.601,1l-0.45-0.601c-0.3-0.466-0.6-0.85-0.9-1.149l-0.899-0.9l-0.649-0.5v-5.35c0-0.267-0.043-0.533-0.125-0.8
			c-0.084-0.267-0.209-0.533-0.375-0.801c-0.367-0.6-0.784-0.933-1.25-1l-0.4,0.101c-0.367,0.1-0.658,0.259-0.875,0.475
			c-0.217,0.218-0.408,0.525-0.575,0.925v4.551c0,0.633,0.25,1.133,0.75,1.5l0.8,0.3l-0.6,0.5c-0.533,0.5-0.918,0.899-1.15,1.2
			l-1.199,1.449l-0.25,0.4l-0.701-0.95c-0.533-0.732-1-1.282-1.399-1.649c-0.3-0.4-0.8-0.851-1.5-1.351l-0.899-0.6
			c0.299-0.066,0.466-0.116,0.5-0.15c0.266-0.2,0.432-0.55,0.5-1.05l0.049-24.5l2.051,1.65l0.65-1.05
			c0.166-0.233,0.35-0.483,0.549-0.75c0.334-0.433,0.643-0.75,0.926-0.95c0.283-0.2,0.641-0.35,1.074-0.45l1.25-0.15h0.5h0.201
			l-1,0.65c-0.701,0.667-1.051,1.467-1.051,2.4v9.9c0.434,0.167,1.033-0.05,1.801-0.65l1.1-1l1.6-1.85l0.45-0.55l1.601,1.9
			l1.049,0.9c0.5,0.5,0.75,0.917,0.75,1.25c0,0.434-0.059,0.759-0.174,0.975c-0.117,0.217-0.459,0.608-1.025,1.175
			c-0.2,0.3-0.567,0.667-1.1,1.1l-0.701,0.55l0.801,0.6l1.35,1.4c0.367,0.367,0.633,0.968,0.801,1.8l0.049,0.5v4.95
			c0,0.534,0.233,0.9,0.701,1.101L194.374,40.596z M188.723,28.946l0.101-0.5c0-0.466-0.175-0.858-0.524-1.175
			c-0.351-0.316-0.893-0.475-1.625-0.475c-0.367,0-0.768,0.233-1.201,0.7l-0.899,1.2v4.3h0.601c0.532-0.167,0.932-0.35,1.199-0.55
			l1.051-0.9c0.232-0.167,0.482-0.533,0.75-1.1c0.066-0.133,0.157-0.358,0.274-0.675C188.565,29.455,188.657,29.18,188.723,28.946z"
			/>
		<path fill="none" stroke="#FFFFFF" stroke-width="2" d="M213.624,41.146c-0.934,0-1.55,0.034-1.85,0.101
			c-0.7,0-1.25,0.075-1.65,0.225c-0.4,0.15-0.768,0.393-1.1,0.726c-0.434,0.5-0.867,1.149-1.301,1.949l-0.549,1.15h-0.451
			c-0.732,0-1.333-0.083-1.799-0.25c-0.834-0.267-1.492-0.717-1.976-1.35s-0.942-1.367-1.375-2.2l-0.351-0.8v-11.55
			c0-0.667-0.166-1.233-0.5-1.7l-0.25-0.3h0.75c0.167,0,0.334,0,0.5,0c0.201-0.066,0.334-0.1,0.4-0.1
			c1.166-0.133,2.208-0.566,3.125-1.3c0.916-0.733,1.758-1.65,2.525-2.75l0.4-0.75c0.232,0.033,0.457,0.067,0.674,0.1
			c0.217,0.034,0.441,0.1,0.676,0.2c1.033,0.333,1.816,0.867,2.35,1.6c0.566,0.667,1.033,1.367,1.4,2.1l0.35,0.8V41.146z
			 M209.024,41.246v-12.35c0-0.333-0.067-0.617-0.2-0.85c-0.034-0.167-0.25-0.417-0.649-0.75c-0.135-0.1-0.268-0.183-0.4-0.25
			c-0.334-0.167-0.684-0.283-1.051-0.35l-0.85-0.15v12.65c0,0.367,0.133,0.684,0.4,0.949l0.8,0.7
			c0.267,0.167,0.583,0.284,0.95,0.351L209.024,41.246z"/>
		<path fill="none" stroke="#FFFFFF" stroke-width="2" d="M221.223,29.046v-0.75c0.066-0.9-0.25-1.417-0.949-1.55l1.85-1.85
			c0.4-0.5,0.616-0.767,0.65-0.8c0.199-0.266,0.399-0.6,0.6-1l0.25-0.35l0.65,0.55c0.432,0.333,0.85,0.767,1.25,1.3l0.799,1.65
			c0.434,0.167,1.033-0.05,1.801-0.65l1.1-1.45l1.2-1.35l0.399-0.25l0.551,0.2l0.25,0.2l0.85,0.7l0.85,0.9
			c0.5,0.8,0.75,1.367,0.75,1.7c0,0.434-0.059,0.758-0.174,0.975c-0.117,0.217-0.459,0.842-1.025,1.875c-0.2,0.3-0.5,0.667-0.9,1.1
			l-0.85,0.85l1.5,1.3l0.949,1.25l0.451,0.601v2.85c0,0.733-0.25,1.45-0.75,2.15c-0.601,0.899-1.534,1.617-2.801,2.149
			c-0.967,0.367-1.934,1.15-2.9,2.351l-1.049,1.6l-2.9-2.6l-2.4-1.9l-0.949-0.65c0.266-0.066,0.482-0.191,0.649-0.375
			c0.167-0.183,0.267-0.457,0.3-0.824V29.046z M229.374,40.896v-6.649c0-0.333-0.117-0.65-0.35-0.95c-0.234-0.3-0.568-0.45-1-0.45
			c-0.367,0-0.768,0.218-1.201,0.65c-0.434,0.434-0.649,0.817-0.649,1.149v3.2l0.25,0.65c0.2,0.467,0.45,0.85,0.75,1.149
			C227.774,40.479,228.506,40.896,229.374,40.896z M229.573,28.546l0.101-0.45c0-0.366-0.175-0.683-0.524-0.95
			c-0.351-0.267-0.609-0.4-0.775-0.4c-0.367,0-0.768,0.2-1.2,0.6l-0.899,1v3.55h0.6c0.533-0.133,0.933-0.283,1.199-0.45
			C228.907,30.513,229.407,29.546,229.573,28.546z"/>
		<path fill="none" stroke="#FFFFFF" stroke-width="2" d="M242.273,28.496v-0.5c-0.134-0.7-0.483-1.117-1.05-1.25l1.65-1.85
			c0.399-0.5,0.616-0.767,0.649-0.8c0.2-0.266,0.4-0.6,0.601-1l0.25-0.35l0.399,0.55l0.8,1.3l0.9,2v7.25l0.8-0.35
			c0.433-0.2,0.717-0.342,0.851-0.425c0.133-0.083,0.449-0.308,0.949-0.675c0.5-0.466,1.083-1.117,1.75-1.95l0.25-0.5l0.5,0.5
			l0.95,1.15l0.8,1.25l0.4,0.601v3.6c0,0.733-0.217,1.45-0.65,2.15c-0.5,0.899-1.283,1.617-2.35,2.149
			c-1.033,0.367-2.033,1.15-3,2.351l-1.05,1.6l-2.15-2.6l-2.2-2.051l-1.1-0.649c0.3-0.066,0.541-0.191,0.725-0.375
			c0.184-0.183,0.292-0.458,0.325-0.825V28.496z M249.523,40.896v-5.25c0-0.332-0.117-0.649-0.35-0.949
			c-0.233-0.301-0.567-0.45-1-0.45c-0.367,0-0.768,0.217-1.2,0.649c-0.434,0.434-0.65,0.867-0.65,1.301v1.649l0.25,0.65
			c0.2,0.467,0.45,0.85,0.75,1.149C247.923,40.479,248.656,40.896,249.523,40.896z M261.423,41.746l-0.5,0.5l-0.8,1l-1.65,2.05
			l-0.5-0.65l-0.85-1.5c-0.268-0.266-0.5-0.482-0.7-0.649c-0.3-0.267-0.617-0.5-0.95-0.7l-0.95-0.5c0.233-0.033,0.366-0.066,0.4-0.1
			c0.433-0.233,0.732-0.75,0.899-1.551V28.246l-0.199-0.45l-0.5-0.75l-0.851-0.55l-0.5-0.3l0.601-0.45l1.1-1.1l1.65-2.4l0.699,0.7
			l1.051,1.2l1.55,1.05l0.75,0.45l-1.15,1.3v13.4c0,0.367,0.233,0.733,0.7,1.101L261.423,41.746z"/>
		<path fill="none" stroke="#FFFFFF" stroke-width="2" d="M278.823,38.596c0,0.601-0.283,1.3-0.85,2.101
			c-0.434,0.633-0.951,1.199-1.551,1.699c-0.334,0.2-0.799,0.768-1.4,1.7l-0.799,1.2h-0.85c-0.768,0-1.352-0.05-1.75-0.15
			c-0.867-0.199-1.559-0.582-2.076-1.149c-0.518-0.566-0.992-1.25-1.424-2.05c-0.434-0.801-0.65-1.533-0.65-2.2v-13.3h0.549
			c0.301,0,0.643-0.008,1.025-0.025c0.383-0.017,0.857-0.075,1.426-0.175c0.566-0.1,1.082-0.383,1.549-0.85
			c0.467-0.466,1-1.133,1.602-2l0.75-1.15c0.332,0.033,0.633,0.133,0.898,0.3c0.602,0.233,1.209,0.708,1.826,1.425
			c0.615,0.717,1.057,1.509,1.324,2.375l0.15,0.45l-0.15,1.1c-0.066,0.4-0.15,0.733-0.25,1c-0.1,0.267-0.268,0.534-0.5,0.8
			l-3.15,3.45c-0.166,0.168-0.316,0.334-0.449,0.5c-0.301,0.367-0.584,0.784-0.85,1.25l-0.551,0.851v3c0,0.667,0.301,1.25,0.9,1.75
			c0.266,0.167,0.574,0.317,0.926,0.45c0.35,0.133,0.674,0.199,0.975,0.199c0.533,0,0.99-0.216,1.375-0.649
			c0.383-0.433,0.574-0.9,0.574-1.4c0-0.232-0.066-0.482-0.199-0.75l-0.5-1.25c0-0.232,0.115-0.416,0.35-0.55
			c0.232-0.133,0.416-0.2,0.551-0.2c0.365,0,0.656,0.233,0.875,0.7C278.713,37.513,278.823,38.029,278.823,38.596z M275.124,30.046
			c0-0.466-0.275-1.116-0.826-1.95c-0.549-0.833-1.092-1.25-1.625-1.25v6.7l1.75-1.8C274.889,31.18,275.124,30.613,275.124,30.046z"
			/>
		<path fill="none" stroke="#FFFFFF" stroke-width="2" d="M107.6,100.596l-0.6,0.601c-0.534,0.5-0.9,0.917-1.1,1.25l-1,1.55l-0.6,1
			l-0.45-0.601c-0.3-0.466-0.6-0.85-0.9-1.149l-0.9-0.9l-0.65-0.5v-5.35c0-0.267-0.042-0.533-0.125-0.8
			c-0.083-0.267-0.208-0.533-0.375-0.801c-0.367-0.6-0.784-0.933-1.25-1l-0.4,0.101c-0.367,0.1-0.659,0.259-0.875,0.475
			c-0.217,0.218-0.409,0.525-0.575,0.925v4.551c0,0.633,0.25,1.133,0.75,1.5l0.8,0.3l-0.6,0.5c-0.534,0.5-0.917,0.899-1.15,1.2
			l-1.2,1.449l-0.25,0.4l-0.7-0.95c-0.533-0.732-1-1.282-1.4-1.649c-0.3-0.4-0.8-0.851-1.5-1.351l-0.9-0.6
			c0.3-0.066,0.466-0.116,0.5-0.15c0.267-0.2,0.433-0.55,0.5-1.05l0.05-24.5l2.05,1.65l0.65-1.051c0.167-0.232,0.35-0.482,0.55-0.75
			c0.333-0.433,0.642-0.75,0.925-0.949c0.283-0.2,0.641-0.351,1.075-0.45l1.25-0.15h0.5h0.2l-1,0.65
			c-0.7,0.667-1.05,1.467-1.05,2.399v9.9c0.433,0.167,1.033-0.05,1.8-0.65l1.1-1l1.6-1.85l0.45-0.55l1.6,1.899l1.05,0.9
			c0.5,0.5,0.75,0.917,0.75,1.25c0,0.434-0.059,0.759-0.175,0.975c-0.117,0.218-0.458,0.609-1.025,1.176
			c-0.2,0.3-0.567,0.667-1.1,1.1l-0.7,0.55l0.8,0.601l1.35,1.399c0.366,0.367,0.633,0.968,0.8,1.8l0.05,0.5v4.95
			c0,0.534,0.233,0.9,0.7,1.101L107.6,100.596z M101.949,88.946l0.1-0.5c0-0.467-0.175-0.858-0.525-1.176
			c-0.35-0.316-0.892-0.475-1.625-0.475c-0.367,0-0.767,0.233-1.2,0.7l-0.9,1.2v4.3h0.6c0.533-0.167,0.933-0.351,1.2-0.55l1.05-0.9
			c0.233-0.166,0.483-0.533,0.75-1.1c0.066-0.133,0.158-0.358,0.275-0.676C101.791,89.454,101.882,89.18,101.949,88.946z"/>
		<path fill="none" stroke="#FFFFFF" stroke-width="2" d="M131.949,81.946l0.65-0.351c1.133-0.633,2.15-1.45,3.05-2.45
			c0.566-0.566,1.033-1.25,1.4-2.05c0.233-0.5,0.417-1.149,0.55-1.95l0.45,0.601c1,0.899,2.633,1.35,4.9,1.35
			c1.866,0,3.299-0.7,4.299-2.1c0.233-0.366,0.533-1.083,0.9-2.15v0.4l0.15,1.8l-0.051,1.2l-0.199,1.2
			c-0.234,0.934-1.033,1.733-2.4,2.399c-1.467,0.634-2.817,0.95-4.05,0.95c-0.8,0-1.917-0.083-3.35-0.25l-1.65-0.25l0.35,0.75
			l0.6,1.5l0.35,1.65l0.15,1.85l0.8-0.4c0.2-0.133,0.458-0.308,0.775-0.524c0.316-0.217,0.525-0.375,0.625-0.476l1.15-1.399
			l0.65-0.95l1.05,0.35c0.333,0.134,0.625,0.259,0.875,0.375c0.25,0.117,0.5,0.275,0.75,0.476s0.642,0.7,1.175,1.5l0.5,1.149v14.7
			l-0.9,0.101c-1.5,0.267-2.849,0.816-4.049,1.649c-0.7,0.5-1.3,1.05-1.8,1.65c-0.234,0.233-0.484,0.617-0.75,1.149l-1-0.649
			c-0.4-0.267-0.684-0.45-0.85-0.55c-0.434-0.267-0.934-0.566-1.5-0.9l-2.35-1.05l-1-0.45c0.6-0.1,0.983-0.783,1.15-2.05l0.05-6.25
			c0-3.433-0.109-6.175-0.325-8.226C132.857,83.221,132.482,82.113,131.949,81.946z M137.149,99.996l0.95,0.2l1.3,0.3
			c0.333,0.167,0.65,0.375,0.95,0.625c0.3,0.25,0.583,0.392,0.85,0.425l0.5-0.15l0.1-12.1l-0.1-0.6c-0.1-0.434-0.3-0.801-0.6-1.101
			l-0.7-0.8c-0.167-0.2-0.367-0.333-0.6-0.4c-0.5,0-0.884,0.2-1.15,0.601l-0.75,0.95v9.35l-0.55,1.25
			c-0.034,0.1-0.059,0.192-0.075,0.275c-0.018,0.083-0.042,0.208-0.075,0.375L137.149,99.996z"/>
		<path fill="none" stroke="#FFFFFF" stroke-width="2" d="M168.849,100.596l-0.601,0.601c-0.533,0.5-0.899,0.917-1.1,1.25l-1,1.55
			l-0.6,1l-0.45-0.601c-0.3-0.466-0.601-0.85-0.9-1.149l-0.899-0.9l-0.65-0.5v-5.35c0-0.267-0.042-0.533-0.125-0.8
			c-0.084-0.267-0.209-0.533-0.375-0.801c-0.367-0.6-0.783-0.933-1.25-1l-0.4,0.101c-0.367,0.1-0.658,0.259-0.875,0.475
			c-0.217,0.218-0.408,0.525-0.574,0.925v4.551c0,0.633,0.25,1.133,0.75,1.5l0.8,0.3l-0.601,0.5c-0.533,0.5-0.917,0.899-1.149,1.2
			l-1.2,1.449l-0.25,0.4l-0.7-0.95c-0.533-0.732-1-1.282-1.399-1.649c-0.301-0.4-0.801-0.851-1.5-1.351l-0.9-0.6
			c0.3-0.066,0.467-0.116,0.5-0.15c0.267-0.2,0.433-0.55,0.5-1.05l0.05-24.5l2.05,1.65l0.65-1.051c0.166-0.232,0.35-0.482,0.55-0.75
			c0.333-0.433,0.642-0.75,0.925-0.949c0.283-0.2,0.642-0.351,1.075-0.45l1.25-0.15h0.5h0.2l-1,0.65
			c-0.7,0.667-1.05,1.467-1.05,2.399v9.9c0.433,0.167,1.032-0.05,1.8-0.65l1.1-1l1.601-1.85l0.45-0.55l1.6,1.899l1.05,0.9
			c0.5,0.5,0.75,0.917,0.75,1.25c0,0.434-0.059,0.759-0.175,0.975c-0.117,0.218-0.459,0.609-1.025,1.176
			c-0.199,0.3-0.566,0.667-1.1,1.1l-0.7,0.55l0.8,0.601l1.351,1.399c0.366,0.367,0.633,0.968,0.8,1.8l0.05,0.5v4.95
			c0,0.534,0.233,0.9,0.7,1.101L168.849,100.596z M163.199,88.946l0.101-0.5c0-0.467-0.176-0.858-0.525-1.176
			c-0.35-0.316-0.893-0.475-1.625-0.475c-0.367,0-0.768,0.233-1.2,0.7l-0.899,1.2v4.3h0.6c0.533-0.167,0.933-0.351,1.2-0.55
			l1.05-0.9c0.232-0.166,0.482-0.533,0.75-1.1c0.066-0.133,0.158-0.358,0.275-0.676C163.041,89.454,163.131,89.18,163.199,88.946z"
			/>
		<path fill="none" stroke="#FFFFFF" stroke-width="2" d="M193.049,100.996l-2.101,1.649c-0.7,0.634-1.149,1.468-1.351,2.5
			l-0.549,0.051c-0.5,0-0.934-0.101-1.301-0.301c-0.367-0.199-0.75-0.516-1.15-0.949c-0.666-0.733-1.217-1.566-1.649-2.5l-2.05,1.5
			c-0.7,0.6-1.15,1.367-1.35,2.3l-0.551,0.05c-0.334,0-0.667-0.05-1-0.15c-0.334-0.1-0.816-0.433-1.449-1
			c-0.168-0.199-0.375-0.466-0.625-0.8c-0.25-0.333-0.476-0.683-0.676-1.05c-0.367-0.633-0.55-1.232-0.55-1.8v-12.7
			c0-0.467-0.284-0.883-0.851-1.25l-0.899-0.35l0.75-0.65l1.3-1.25c0.333-0.333,0.666-0.816,1-1.45l0.25-0.5l0.6,0.3
			c0.434,0.234,0.842,0.584,1.226,1.051c0.383,0.467,0.708,1.066,0.976,1.8l0.25,1v11c0,0.567,0.032,0.983,0.1,1.25l0.449,1.1
			c0.201,0.367,0.551,0.684,1.051,0.95c0.6,0.233,1.082,0.35,1.449,0.35l0.5-0.149l-0.1-0.601v-12.75c0-0.466-0.3-0.883-0.9-1.25
			l-0.899-0.3l0.75-0.649l1.3-1.2c0.333-0.4,0.525-0.633,0.575-0.7c0.05-0.066,0.157-0.25,0.325-0.55l0.4-0.75l0.949,0.5
			c0.232,0.134,0.525,0.417,0.875,0.85c0.35,0.434,0.658,1.034,0.926,1.8l0.25,0.95v11.05l0.149,1.2
			c0.032,0.3,0.175,0.675,0.425,1.125s0.642,0.792,1.176,1.025c0.266,0.134,0.516,0.233,0.75,0.3c0.232,0.067,0.5,0.1,0.799,0.1
			C192.799,101.146,192.949,101.096,193.049,100.996z"/>
	</g>
	<g>
		<path d="M26.726,10.496c-0.1,0.2-0.184,0.367-0.25,0.5c-0.334,0.633-0.567,1.117-0.7,1.45c-0.233,0.6-0.55,1.017-0.95,1.25
			c-0.934,0.767-2.5,1.15-4.7,1.15c-0.867,0-2.167-0.083-3.9-0.25c-2.867,0-5,0.3-6.4,0.9c-1.4,0.6-2.1,1.633-2.1,3.1l0.15,1.7
			c0.033,0.467,0.333,0.842,0.9,1.125c0.566,0.284,1.033,0.458,1.4,0.525l-0.2,0.15c-0.067,0.034-0.334,0.084-0.8,0.15l-1.05-0.15
			l-1.2-0.65c-0.567-0.4-1-0.883-1.3-1.45c-0.234-0.7-0.35-1.483-0.35-2.35v-0.85v-1c0.2-2.267,1.186-4.066,2.957-5.4
			c1.538-1.167,3.241-1.75,5.113-1.75c2.372,0,4.478,0.617,6.315,1.85c1.838,1.233,3.058,1.85,3.66,1.85
			c0.634,0,1.111-0.166,1.428-0.5c0.317-0.333,0.477-0.883,0.477-1.65c0-0.633,0.141-1.108,0.425-1.425
			c0.283-0.316,0.642-0.441,1.075-0.375c0.333,0.1,0.5,0.434,0.5,1C27.226,9.896,27.058,10.263,26.726,10.496z M34.976,10.446
			c-0.1,0.295-0.2,0.615-0.3,0.958s-0.267,0.729-0.5,1.154c-0.767,1.474-1.717,2.522-2.85,3.145l-0.9,0.393l-0.85,0.1l-0.8-0.05
			l-1.9-0.05h-0.5l-0.5,0.15v23.1l1.8,0.3l1.85,0.15c1.2,0,2.5-0.2,3.9-0.6l0.9-0.301l-2.85,3.027
			c-0.134,0.133-0.342,0.396-0.625,0.793c-0.284,0.397-0.559,0.777-0.825,1.141l-0.65,0.992l-1.4,0.199
			c-1.067,0.133-1.842,0.207-2.325,0.223c-0.483,0.018-0.875,0.025-1.175,0.025c-0.934,0-1.842-0.049-2.725-0.149
			c-0.884-0.1-1.759-0.249-2.625-0.449c-0.867-0.199-1.667-0.481-2.4-0.847c-0.734-0.365-1.4-0.848-2-1.446
			c-1.567-1.562-2.617-2.741-3.15-3.539c-1.367-2.126-2.05-4.586-2.05-7.377c0-2.459,0.4-4.67,1.2-6.631
			c0.566-1.428,1.466-2.857,2.7-4.287c0.367-0.398,0.8-0.814,1.3-1.246s1.033-0.848,1.6-1.246c1.133-0.831,2.433-1.478,3.9-1.944
			c1.466-0.465,3.216-0.848,5.25-1.146c0.866-0.1,1.5-0.515,1.9-1.246l0.85-1.396l1.3-2.042l0.25-0.358l0.85,0.45
			c0.266,0.133,0.566,0.233,0.9,0.3c0.333,0.067,0.6,0.117,0.8,0.15l1.75-0.15L34.976,10.446z M22.925,16.846l-0.6-0.05
			c-0.934,0-1.833,0.217-2.7,0.65c-1.367,0.634-2.7,1.8-4,3.5c-0.434,0.534-0.817,1.417-1.15,2.65c-0.1,0.6-0.184,1.175-0.25,1.725
			c-0.067,0.55-0.1,1.142-0.1,1.775c0,1.4,0.119,2.4,0.356,3l0.915,2.35c0.44,0.9,1.017,1.417,1.729,1.55l0.087-1.4l0.263-4.7v-0.8
			c0-1.666-0.084-2.966-0.25-3.9c-0.1-0.933-0.317-1.616-0.65-2.05l0.55-0.15c0.8-0.267,1.325-0.467,1.575-0.6
			c0.25-0.133,0.642-0.383,1.175-0.75c0.833-0.533,1.583-1.15,2.25-1.85L22.925,16.846z M25.375,39.196V16.346
			c-0.692,0.268-1.263,0.65-1.712,1.15c-0.45,0.5-0.718,0.967-0.804,1.4c-0.086,0.434-0.147,0.842-0.182,1.225
			c-0.034,0.383-0.051,0.975-0.051,1.775v2.9l0.3,4.7v1.55l-0.95,0.45l-2.2,1.4c-0.6,0.4-1.233,0.917-1.9,1.55l-0.75,0.699l1.05,0.9
			C20.075,37.546,22.476,38.596,25.375,39.196z"/>
		<path d="M54.825,36.996c-0.067,0.667-0.125,1.1-0.175,1.3c-0.05,0.2-0.159,0.483-0.325,0.85c-0.667,1.534-1.884,2.734-3.65,3.601
			c-1.034,0.467-1.8,1.2-2.3,2.2l-0.45,1.3c-0.3-0.434-0.75-0.733-1.35-0.9l-0.8-0.05v6.35v2.301c0,0.332,0.116,0.683,0.35,1.05
			l0.3,0.45l-1.2-0.95c-0.2-0.134-0.4-0.417-0.6-0.851l-0.2-0.6l-0.6,0.75c-0.333,0.433-0.567,0.732-0.7,0.9
			c-0.267,0.332-0.5,0.6-0.7,0.8c-0.367,0.5-1.067,0.866-2.1,1.1l-1.35,0.25l0.7-0.85c0.466-0.601,0.783-1.184,0.95-1.75l0.35-1.65
			l0.05-0.85v-1.05v-7.25l0.05-14.95v-0.5c-0.134-0.7-0.55-1.117-1.25-1.25l1.85-1.85c0.4-0.5,0.616-0.767,0.65-0.8
			c0.2-0.266,0.4-0.6,0.6-1l0.25-0.35l0.65,0.55c0.433,0.333,0.85,0.767,1.25,1.3l0.75,1.5c0.1,0.3,0.2,0.518,0.3,0.65
			c0.867,0,1.583-0.217,2.15-0.65c0.1-0.1,0.3-0.325,0.6-0.675c0.3-0.35,0.517-0.625,0.65-0.825c0.266-0.333,0.583-0.85,0.95-1.55
			l0.4-0.8l0.65,0.4c1.033,0.667,1.683,1.167,1.95,1.5c0.267,0.333,0.583,0.85,0.95,1.55l0.4,0.95V36.996z M49.875,42.296v-12.15
			l-0.2-1.15c-0.3-0.833-0.884-1.25-1.75-1.25c-0.7,0-1.217,0.383-1.55,1.15l-0.25,1.15v10.75l0.2,0.4
			c0.133,0.199,0.366,0.417,0.7,0.649l1.2,0.351C48.525,42.263,49.075,42.296,49.875,42.296z"/>
		<path d="M73.425,38.596c0,0.601-0.284,1.3-0.85,2.101c-0.434,0.633-0.95,1.199-1.55,1.699c-0.334,0.2-0.8,0.768-1.4,1.7l-0.8,1.2
			h-0.85c-0.767,0-1.35-0.05-1.75-0.15c-0.867-0.199-1.559-0.582-2.075-1.149c-0.518-0.566-0.992-1.25-1.425-2.05
			c-0.434-0.801-0.65-1.533-0.65-2.2v-13.3h0.55c0.3,0,0.642-0.008,1.025-0.025c0.383-0.017,0.857-0.075,1.425-0.175
			c0.566-0.1,1.083-0.383,1.55-0.85c0.467-0.466,1-1.133,1.6-2l0.75-1.15c0.333,0.033,0.633,0.133,0.9,0.3
			c0.6,0.233,1.208,0.708,1.825,1.425c0.616,0.717,1.058,1.509,1.325,2.375l0.15,0.45l-0.15,1.1c-0.067,0.4-0.15,0.733-0.25,1
			c-0.1,0.267-0.268,0.534-0.5,0.8l-3.15,3.45c-0.167,0.168-0.317,0.334-0.45,0.5c-0.3,0.367-0.583,0.784-0.85,1.25l-0.55,0.851v3
			c0,0.667,0.3,1.25,0.9,1.75c0.266,0.167,0.575,0.317,0.925,0.45s0.675,0.199,0.975,0.199c0.533,0,0.991-0.216,1.375-0.649
			c0.383-0.433,0.575-0.9,0.575-1.4c0-0.232-0.067-0.482-0.2-0.75l-0.5-1.25c0-0.232,0.116-0.416,0.35-0.55
			c0.233-0.133,0.417-0.2,0.55-0.2c0.367,0,0.658,0.233,0.875,0.7C73.316,37.513,73.425,38.029,73.425,38.596z M69.725,30.046
			c0-0.466-0.275-1.116-0.825-1.95c-0.55-0.833-1.092-1.25-1.625-1.25v6.7l1.75-1.8C69.492,31.18,69.725,30.613,69.725,30.046z"/>
		<path d="M93.5,25.171c-0.217,2.05-0.325,4.792-0.325,8.225l0.05,6.25c0.167,1.268,0.55,1.95,1.15,2.051l-1,0.449l-2.35,1.051
			c-0.567,0.333-1.067,0.633-1.5,0.899c-0.167,0.101-0.45,0.284-0.85,0.55l-1,0.65c-0.267-0.533-0.517-0.916-0.75-1.15
			c-0.5-0.6-1.1-1.149-1.8-1.649c-1.2-0.833-2.55-1.383-4.05-1.65l-0.9-0.1v-14.7l0.5-1.15c0.533-0.8,0.925-1.3,1.175-1.5
			c0.25-0.2,0.5-0.358,0.75-0.475c0.25-0.116,0.542-0.241,0.875-0.375l1.05-0.35l0.65,0.95l1.15,1.4
			c0.1,0.1,0.308,0.259,0.625,0.475c0.316,0.217,0.575,0.392,0.775,0.525l0.8,0.4l0.15-1.85l0.35-1.65l0.6-1.5l0.35-0.75l-1.65,0.25
			c-1.434,0.167-2.55,0.25-3.35,0.25c-1.233,0-2.583-0.316-4.05-0.95c-1.367-0.667-2.167-1.467-2.4-2.4l-0.2-1.2l-0.05-1.2l0.15-1.8
			v-0.4c0.367,1.067,0.667,1.783,0.9,2.15c1,1.4,2.433,2.1,4.3,2.1c2.267,0,3.9-0.45,4.9-1.35l0.45-0.6
			c0.133,0.8,0.316,1.45,0.55,1.95c0.366,0.8,0.833,1.483,1.4,2.05c0.9,1,1.917,1.817,3.05,2.45l0.65,0.35
			C94.091,22.013,93.716,23.121,93.5,25.171z M89.375,39.096c-0.033-0.166-0.059-0.291-0.075-0.375
			c-0.017-0.083-0.042-0.175-0.075-0.274l-0.55-1.25v-9.351l-0.75-0.95c-0.267-0.4-0.65-0.6-1.15-0.6
			c-0.234,0.067-0.434,0.2-0.6,0.4l-0.7,0.8c-0.3,0.3-0.5,0.667-0.6,1.1l-0.1,0.6l0.1,12.1l0.5,0.15
			c0.267-0.033,0.55-0.176,0.85-0.426c0.3-0.25,0.617-0.457,0.95-0.625l1.3-0.3l0.95-0.2L89.375,39.096z"/>
		<path d="M106.625,28.646c0,0.1,0,0.483,0,1.15v3.3l3.65-0.35v-3.8v-2.05l-0.7-0.8l1.15-2.1l1.5-1.35l0.95-0.4l1.05,1.1l0.8,0.7
			l0.9,1.6l-1.1,0.95v13.15c0,0.5,0.3,0.833,0.9,1l0.95,0.05l-0.65,0.65l-1.05,1.199l-0.9,1.65l-0.55,1l-1.55-1.75l-1-1l-0.7-0.55
			v-7.101l-3.65,0.351v3.6c0,0.9,0.3,1.601,0.9,2.101c0.1,0.1,0.4,0.233,0.9,0.399l-0.6,0.5l-1.15,1.05
			c-0.1,0.101-0.25,0.334-0.45,0.7c-0.2,0.367-0.367,0.7-0.5,1l-0.25,0.601l-0.55-0.9c-0.133-0.232-0.325-0.525-0.575-0.875
			s-0.409-0.558-0.475-0.625c-0.234-0.232-0.8-0.616-1.7-1.15l-0.05-2.8v-10.95c0-0.667-0.284-1.183-0.85-1.55l-0.8-0.4l0.5-0.4
			l1.15-1.1l1.65-2.3l0.6,0.3l2.25,2l0.6,1.1l0.35,0.4l-0.6,0.4C106.741,26.713,106.625,27.479,106.625,28.646z"/>
		<path d="M133.825,38.596c0,0.601-0.284,1.3-0.85,2.101c-0.434,0.633-0.95,1.199-1.55,1.699c-0.334,0.2-0.8,0.768-1.4,1.7l-0.8,1.2
			h-0.85c-0.767,0-1.35-0.05-1.75-0.15c-0.867-0.199-1.559-0.582-2.075-1.149c-0.518-0.566-0.992-1.25-1.425-2.05
			c-0.434-0.801-0.65-1.533-0.65-2.2v-13.3h0.55c0.3,0,0.642-0.008,1.025-0.025c0.383-0.017,0.857-0.075,1.425-0.175
			c0.566-0.1,1.083-0.383,1.55-0.85c0.467-0.466,1-1.133,1.6-2l0.75-1.15c0.333,0.033,0.633,0.133,0.9,0.3
			c0.6,0.233,1.208,0.708,1.825,1.425c0.616,0.717,1.058,1.509,1.325,2.375l0.15,0.45l-0.15,1.1c-0.067,0.4-0.15,0.733-0.25,1
			c-0.1,0.267-0.268,0.534-0.5,0.8l-3.15,3.45c-0.167,0.168-0.317,0.334-0.45,0.5c-0.3,0.367-0.583,0.784-0.85,1.25l-0.55,0.851v3
			c0,0.667,0.3,1.25,0.9,1.75c0.266,0.167,0.575,0.317,0.925,0.45s0.675,0.199,0.975,0.199c0.533,0,0.991-0.216,1.375-0.649
			c0.383-0.433,0.575-0.9,0.575-1.4c0-0.232-0.067-0.482-0.2-0.75l-0.5-1.25c0-0.232,0.116-0.416,0.35-0.55
			c0.233-0.133,0.417-0.2,0.55-0.2c0.367,0,0.658,0.233,0.875,0.7C133.716,37.513,133.825,38.029,133.825,38.596z M130.125,30.046
			c0-0.466-0.275-1.116-0.825-1.95c-0.55-0.833-1.092-1.25-1.625-1.25v6.7l1.75-1.8C129.891,31.18,130.125,30.613,130.125,30.046z"
			/>
		<path d="M140.924,29.046v-0.75c0.066-0.9-0.25-1.417-0.95-1.55l1.85-1.85c0.4-0.5,0.616-0.767,0.65-0.8c0.2-0.266,0.4-0.6,0.6-1
			l0.25-0.35l0.65,0.55c0.433,0.333,0.851,0.767,1.25,1.3l0.8,1.65c0.434,0.167,1.033-0.05,1.801-0.65l1.1-1.45l1.199-1.35l0.4-0.25
			l0.551,0.2l0.25,0.2l0.85,0.7l0.85,0.9c0.5,0.8,0.75,1.367,0.75,1.7c0,0.434-0.059,0.758-0.175,0.975
			c-0.117,0.217-0.458,0.842-1.024,1.875c-0.201,0.3-0.5,0.667-0.9,1.1l-0.85,0.85l1.5,1.3l0.949,1.25l0.45,0.601v2.85
			c0,0.733-0.25,1.45-0.75,2.15c-0.601,0.899-1.534,1.617-2.8,2.149c-0.967,0.367-1.934,1.15-2.9,2.351l-1.05,1.6l-2.9-2.6l-2.4-1.9
			l-0.95-0.65c0.267-0.066,0.483-0.191,0.65-0.375c0.167-0.183,0.267-0.457,0.3-0.824V29.046z M149.075,40.896v-6.649
			c0-0.333-0.117-0.65-0.351-0.95s-0.567-0.45-1-0.45c-0.367,0-0.767,0.218-1.2,0.65c-0.434,0.434-0.65,0.817-0.65,1.149v3.2
			l0.25,0.65c0.201,0.467,0.451,0.85,0.75,1.149C147.474,40.479,148.208,40.896,149.075,40.896z M149.274,28.546l0.1-0.45
			c0-0.366-0.174-0.683-0.524-0.95c-0.351-0.267-0.608-0.4-0.774-0.4c-0.367,0-0.768,0.2-1.201,0.6l-0.899,1v3.55h0.601
			c0.532-0.133,0.932-0.283,1.199-0.45C148.607,30.513,149.107,29.546,149.274,28.546z"/>
		<path d="M172.274,38.596c0,0.601-0.283,1.3-0.85,2.101c-0.434,0.633-0.951,1.199-1.551,1.699c-0.334,0.2-0.8,0.768-1.4,1.7
			l-0.799,1.2h-0.851c-0.767,0-1.351-0.05-1.75-0.15c-0.867-0.199-1.559-0.582-2.075-1.149c-0.518-0.566-0.992-1.25-1.425-2.05
			c-0.434-0.801-0.649-1.533-0.649-2.2v-13.3h0.549c0.301,0,0.643-0.008,1.025-0.025c0.383-0.017,0.857-0.075,1.426-0.175
			c0.566-0.1,1.082-0.383,1.549-0.85c0.467-0.466,1-1.133,1.601-2l0.75-1.15c0.333,0.033,0.633,0.133,0.899,0.3
			c0.601,0.233,1.209,0.708,1.826,1.425c0.615,0.717,1.057,1.509,1.324,2.375l0.15,0.45l-0.15,1.1c-0.066,0.4-0.15,0.733-0.25,1
			c-0.1,0.267-0.268,0.534-0.5,0.8l-3.15,3.45c-0.166,0.168-0.316,0.334-0.449,0.5c-0.301,0.367-0.584,0.784-0.85,1.25l-0.551,0.851
			v3c0,0.667,0.301,1.25,0.9,1.75c0.266,0.167,0.574,0.317,0.925,0.45s0.675,0.199,0.976,0.199c0.532,0,0.99-0.216,1.375-0.649
			c0.383-0.433,0.574-0.9,0.574-1.4c0-0.232-0.066-0.482-0.199-0.75l-0.5-1.25c0-0.232,0.115-0.416,0.35-0.55
			c0.232-0.133,0.416-0.2,0.55-0.2c0.366,0,0.657,0.233,0.875,0.7C172.165,37.513,172.274,38.029,172.274,38.596z M168.574,30.046
			c0-0.466-0.274-1.116-0.825-1.95c-0.55-0.833-1.092-1.25-1.625-1.25v6.7l1.75-1.8C168.34,31.18,168.574,30.613,168.574,30.046z"/>
		<path d="M194.374,40.596l-0.6,0.601c-0.533,0.5-0.9,0.917-1.1,1.25l-1,1.55l-0.601,1l-0.45-0.601c-0.3-0.466-0.6-0.85-0.9-1.149
			l-0.899-0.9l-0.649-0.5v-5.35c0-0.267-0.043-0.533-0.125-0.8c-0.084-0.267-0.209-0.533-0.375-0.801c-0.367-0.6-0.784-0.933-1.25-1
			l-0.4,0.101c-0.367,0.1-0.658,0.259-0.875,0.475c-0.217,0.218-0.408,0.525-0.575,0.925v4.551c0,0.633,0.25,1.133,0.75,1.5l0.8,0.3
			l-0.6,0.5c-0.533,0.5-0.918,0.899-1.15,1.2l-1.199,1.449l-0.25,0.4l-0.701-0.95c-0.533-0.732-1-1.282-1.399-1.649
			c-0.3-0.4-0.8-0.851-1.5-1.351l-0.899-0.6c0.299-0.066,0.466-0.116,0.5-0.15c0.266-0.2,0.432-0.55,0.5-1.05l0.049-24.5l2.051,1.65
			l0.65-1.05c0.166-0.233,0.35-0.483,0.549-0.75c0.334-0.433,0.643-0.75,0.926-0.95c0.283-0.2,0.641-0.35,1.074-0.45l1.25-0.15h0.5
			h0.201l-1,0.65c-0.701,0.667-1.051,1.467-1.051,2.4v9.9c0.434,0.167,1.033-0.05,1.801-0.65l1.1-1l1.6-1.85l0.45-0.55l1.601,1.9
			l1.049,0.9c0.5,0.5,0.75,0.917,0.75,1.25c0,0.434-0.059,0.759-0.174,0.975c-0.117,0.217-0.459,0.608-1.025,1.175
			c-0.2,0.3-0.567,0.667-1.1,1.1l-0.701,0.55l0.801,0.6l1.35,1.4c0.367,0.367,0.633,0.968,0.801,1.8l0.049,0.5v4.95
			c0,0.534,0.233,0.9,0.701,1.101L194.374,40.596z M188.723,28.946l0.101-0.5c0-0.466-0.175-0.858-0.524-1.175
			c-0.351-0.316-0.893-0.475-1.625-0.475c-0.367,0-0.768,0.233-1.201,0.7l-0.899,1.2v4.3h0.601c0.532-0.167,0.932-0.35,1.199-0.55
			l1.051-0.9c0.232-0.167,0.482-0.533,0.75-1.1c0.066-0.133,0.157-0.358,0.274-0.675C188.565,29.455,188.657,29.18,188.723,28.946z"
			/>
		<path d="M213.624,41.146c-0.934,0-1.55,0.034-1.85,0.101c-0.7,0-1.25,0.075-1.65,0.225c-0.4,0.15-0.768,0.393-1.1,0.726
			c-0.434,0.5-0.867,1.149-1.301,1.949l-0.549,1.15h-0.451c-0.732,0-1.333-0.083-1.799-0.25c-0.834-0.267-1.492-0.717-1.976-1.35
			s-0.942-1.367-1.375-2.2l-0.351-0.8v-11.55c0-0.667-0.166-1.233-0.5-1.7l-0.25-0.3h0.75c0.167,0,0.334,0,0.5,0
			c0.201-0.066,0.334-0.1,0.4-0.1c1.166-0.133,2.208-0.566,3.125-1.3c0.916-0.733,1.758-1.65,2.525-2.75l0.4-0.75
			c0.232,0.033,0.457,0.067,0.674,0.1c0.217,0.034,0.441,0.1,0.676,0.2c1.033,0.333,1.816,0.867,2.35,1.6
			c0.566,0.667,1.033,1.367,1.4,2.1l0.35,0.8V41.146z M209.024,41.246v-12.35c0-0.333-0.067-0.617-0.2-0.85
			c-0.034-0.167-0.25-0.417-0.649-0.75c-0.135-0.1-0.268-0.183-0.4-0.25c-0.334-0.167-0.684-0.283-1.051-0.35l-0.85-0.15v12.65
			c0,0.367,0.133,0.684,0.4,0.949l0.8,0.7c0.267,0.167,0.583,0.284,0.95,0.351L209.024,41.246z"/>
		<path d="M221.223,29.046v-0.75c0.066-0.9-0.25-1.417-0.949-1.55l1.85-1.85c0.4-0.5,0.616-0.767,0.65-0.8
			c0.199-0.266,0.399-0.6,0.6-1l0.25-0.35l0.65,0.55c0.432,0.333,0.85,0.767,1.25,1.3l0.799,1.65c0.434,0.167,1.033-0.05,1.801-0.65
			l1.1-1.45l1.2-1.35l0.399-0.25l0.551,0.2l0.25,0.2l0.85,0.7l0.85,0.9c0.5,0.8,0.75,1.367,0.75,1.7
			c0,0.434-0.059,0.758-0.174,0.975c-0.117,0.217-0.459,0.842-1.025,1.875c-0.2,0.3-0.5,0.667-0.9,1.1l-0.85,0.85l1.5,1.3
			l0.949,1.25l0.451,0.601v2.85c0,0.733-0.25,1.45-0.75,2.15c-0.601,0.899-1.534,1.617-2.801,2.149
			c-0.967,0.367-1.934,1.15-2.9,2.351l-1.049,1.6l-2.9-2.6l-2.4-1.9l-0.949-0.65c0.266-0.066,0.482-0.191,0.649-0.375
			c0.167-0.183,0.267-0.457,0.3-0.824V29.046z M229.374,40.896v-6.649c0-0.333-0.117-0.65-0.35-0.95c-0.234-0.3-0.568-0.45-1-0.45
			c-0.367,0-0.768,0.218-1.201,0.65c-0.434,0.434-0.649,0.817-0.649,1.149v3.2l0.25,0.65c0.2,0.467,0.45,0.85,0.75,1.149
			C227.774,40.479,228.506,40.896,229.374,40.896z M229.573,28.546l0.101-0.45c0-0.366-0.175-0.683-0.524-0.95
			c-0.351-0.267-0.609-0.4-0.775-0.4c-0.367,0-0.768,0.2-1.2,0.6l-0.899,1v3.55h0.6c0.533-0.133,0.933-0.283,1.199-0.45
			C228.907,30.513,229.407,29.546,229.573,28.546z"/>
		<path d="M242.273,28.496v-0.5c-0.134-0.7-0.483-1.117-1.05-1.25l1.65-1.85c0.399-0.5,0.616-0.767,0.649-0.8
			c0.2-0.266,0.4-0.6,0.601-1l0.25-0.35l0.399,0.55l0.8,1.3l0.9,2v7.25l0.8-0.35c0.433-0.2,0.717-0.342,0.851-0.425
			c0.133-0.083,0.449-0.308,0.949-0.675c0.5-0.466,1.083-1.117,1.75-1.95l0.25-0.5l0.5,0.5l0.95,1.15l0.8,1.25l0.4,0.601v3.6
			c0,0.733-0.217,1.45-0.65,2.15c-0.5,0.899-1.283,1.617-2.35,2.149c-1.033,0.367-2.033,1.15-3,2.351l-1.05,1.6l-2.15-2.6
			l-2.2-2.051l-1.1-0.649c0.3-0.066,0.541-0.191,0.725-0.375c0.184-0.183,0.292-0.458,0.325-0.825V28.496z M249.523,40.896v-5.25
			c0-0.332-0.117-0.649-0.35-0.949c-0.233-0.301-0.567-0.45-1-0.45c-0.367,0-0.768,0.217-1.2,0.649
			c-0.434,0.434-0.65,0.867-0.65,1.301v1.649l0.25,0.65c0.2,0.467,0.45,0.85,0.75,1.149
			C247.923,40.479,248.656,40.896,249.523,40.896z M261.423,41.746l-0.5,0.5l-0.8,1l-1.65,2.05l-0.5-0.65l-0.85-1.5
			c-0.268-0.266-0.5-0.482-0.7-0.649c-0.3-0.267-0.617-0.5-0.95-0.7l-0.95-0.5c0.233-0.033,0.366-0.066,0.4-0.1
			c0.433-0.233,0.732-0.75,0.899-1.551V28.246l-0.199-0.45l-0.5-0.75l-0.851-0.55l-0.5-0.3l0.601-0.45l1.1-1.1l1.65-2.4l0.699,0.7
			l1.051,1.2l1.55,1.05l0.75,0.45l-1.15,1.3v13.4c0,0.367,0.233,0.733,0.7,1.101L261.423,41.746z"/>
		<path d="M278.823,38.596c0,0.601-0.283,1.3-0.85,2.101c-0.434,0.633-0.951,1.199-1.551,1.699c-0.334,0.2-0.799,0.768-1.4,1.7
			l-0.799,1.2h-0.85c-0.768,0-1.352-0.05-1.75-0.15c-0.867-0.199-1.559-0.582-2.076-1.149c-0.518-0.566-0.992-1.25-1.424-2.05
			c-0.434-0.801-0.65-1.533-0.65-2.2v-13.3h0.549c0.301,0,0.643-0.008,1.025-0.025c0.383-0.017,0.857-0.075,1.426-0.175
			c0.566-0.1,1.082-0.383,1.549-0.85c0.467-0.466,1-1.133,1.602-2l0.75-1.15c0.332,0.033,0.633,0.133,0.898,0.3
			c0.602,0.233,1.209,0.708,1.826,1.425c0.615,0.717,1.057,1.509,1.324,2.375l0.15,0.45l-0.15,1.1c-0.066,0.4-0.15,0.733-0.25,1
			c-0.1,0.267-0.268,0.534-0.5,0.8l-3.15,3.45c-0.166,0.168-0.316,0.334-0.449,0.5c-0.301,0.367-0.584,0.784-0.85,1.25l-0.551,0.851
			v3c0,0.667,0.301,1.25,0.9,1.75c0.266,0.167,0.574,0.317,0.926,0.45c0.35,0.133,0.674,0.199,0.975,0.199
			c0.533,0,0.99-0.216,1.375-0.649c0.383-0.433,0.574-0.9,0.574-1.4c0-0.232-0.066-0.482-0.199-0.75l-0.5-1.25
			c0-0.232,0.115-0.416,0.35-0.55c0.232-0.133,0.416-0.2,0.551-0.2c0.365,0,0.656,0.233,0.875,0.7
			C278.713,37.513,278.823,38.029,278.823,38.596z M275.124,30.046c0-0.466-0.275-1.116-0.826-1.95
			c-0.549-0.833-1.092-1.25-1.625-1.25v6.7l1.75-1.8C274.889,31.18,275.124,30.613,275.124,30.046z"/>
		<path d="M107.6,100.596l-0.6,0.601c-0.534,0.5-0.9,0.917-1.1,1.25l-1,1.55l-0.6,1l-0.45-0.601c-0.3-0.466-0.6-0.85-0.9-1.149
			l-0.9-0.9l-0.65-0.5v-5.35c0-0.267-0.042-0.533-0.125-0.8c-0.083-0.267-0.208-0.533-0.375-0.801c-0.367-0.6-0.784-0.933-1.25-1
			l-0.4,0.101c-0.367,0.1-0.659,0.259-0.875,0.475c-0.217,0.218-0.409,0.525-0.575,0.925v4.551c0,0.633,0.25,1.133,0.75,1.5l0.8,0.3
			l-0.6,0.5c-0.534,0.5-0.917,0.899-1.15,1.2l-1.2,1.449l-0.25,0.4l-0.7-0.95c-0.533-0.732-1-1.282-1.4-1.649
			c-0.3-0.4-0.8-0.851-1.5-1.351l-0.9-0.6c0.3-0.066,0.466-0.116,0.5-0.15c0.267-0.2,0.433-0.55,0.5-1.05l0.05-24.5l2.05,1.65
			l0.65-1.051c0.167-0.232,0.35-0.482,0.55-0.75c0.333-0.433,0.642-0.75,0.925-0.949c0.283-0.2,0.641-0.351,1.075-0.45l1.25-0.15
			h0.5h0.2l-1,0.65c-0.7,0.667-1.05,1.467-1.05,2.399v9.9c0.433,0.167,1.033-0.05,1.8-0.65l1.1-1l1.6-1.85l0.45-0.55l1.6,1.899
			l1.05,0.9c0.5,0.5,0.75,0.917,0.75,1.25c0,0.434-0.059,0.759-0.175,0.975c-0.117,0.218-0.458,0.609-1.025,1.176
			c-0.2,0.3-0.567,0.667-1.1,1.1l-0.7,0.55l0.8,0.601l1.35,1.399c0.366,0.367,0.633,0.968,0.8,1.8l0.05,0.5v4.95
			c0,0.534,0.233,0.9,0.7,1.101L107.6,100.596z M101.949,88.946l0.1-0.5c0-0.467-0.175-0.858-0.525-1.176
			c-0.35-0.316-0.892-0.475-1.625-0.475c-0.367,0-0.767,0.233-1.2,0.7l-0.9,1.2v4.3h0.6c0.533-0.167,0.933-0.351,1.2-0.55l1.05-0.9
			c0.233-0.166,0.483-0.533,0.75-1.1c0.066-0.133,0.158-0.358,0.275-0.676C101.791,89.454,101.882,89.18,101.949,88.946z"/>
		<path d="M131.949,81.946l0.65-0.351c1.133-0.633,2.15-1.45,3.05-2.45c0.566-0.566,1.033-1.25,1.4-2.05
			c0.233-0.5,0.417-1.149,0.55-1.95l0.45,0.601c1,0.899,2.633,1.35,4.9,1.35c1.866,0,3.299-0.7,4.299-2.1
			c0.233-0.366,0.533-1.083,0.9-2.15v0.4l0.15,1.8l-0.051,1.2l-0.199,1.2c-0.234,0.934-1.033,1.733-2.4,2.399
			c-1.467,0.634-2.817,0.95-4.05,0.95c-0.8,0-1.917-0.083-3.35-0.25l-1.65-0.25l0.35,0.75l0.6,1.5l0.35,1.65l0.15,1.85l0.8-0.4
			c0.2-0.133,0.458-0.308,0.775-0.524c0.316-0.217,0.525-0.375,0.625-0.476l1.15-1.399l0.65-0.95l1.05,0.35
			c0.333,0.134,0.625,0.259,0.875,0.375c0.25,0.117,0.5,0.275,0.75,0.476s0.642,0.7,1.175,1.5l0.5,1.149v14.7l-0.9,0.101
			c-1.5,0.267-2.849,0.816-4.049,1.649c-0.7,0.5-1.3,1.05-1.8,1.65c-0.234,0.233-0.484,0.617-0.75,1.149l-1-0.649
			c-0.4-0.267-0.684-0.45-0.85-0.55c-0.434-0.267-0.934-0.566-1.5-0.9l-2.35-1.05l-1-0.45c0.6-0.1,0.983-0.783,1.15-2.05l0.05-6.25
			c0-3.433-0.109-6.175-0.325-8.226C132.857,83.221,132.482,82.113,131.949,81.946z M137.149,99.996l0.95,0.2l1.3,0.3
			c0.333,0.167,0.65,0.375,0.95,0.625c0.3,0.25,0.583,0.392,0.85,0.425l0.5-0.15l0.1-12.1l-0.1-0.6c-0.1-0.434-0.3-0.801-0.6-1.101
			l-0.7-0.8c-0.167-0.2-0.367-0.333-0.6-0.4c-0.5,0-0.884,0.2-1.15,0.601l-0.75,0.95v9.35l-0.55,1.25
			c-0.034,0.1-0.059,0.192-0.075,0.275c-0.018,0.083-0.042,0.208-0.075,0.375L137.149,99.996z"/>
		<path d="M168.849,100.596l-0.601,0.601c-0.533,0.5-0.899,0.917-1.1,1.25l-1,1.55l-0.6,1l-0.45-0.601
			c-0.3-0.466-0.601-0.85-0.9-1.149l-0.899-0.9l-0.65-0.5v-5.35c0-0.267-0.042-0.533-0.125-0.8
			c-0.084-0.267-0.209-0.533-0.375-0.801c-0.367-0.6-0.783-0.933-1.25-1l-0.4,0.101c-0.367,0.1-0.658,0.259-0.875,0.475
			c-0.217,0.218-0.408,0.525-0.574,0.925v4.551c0,0.633,0.25,1.133,0.75,1.5l0.8,0.3l-0.601,0.5c-0.533,0.5-0.917,0.899-1.149,1.2
			l-1.2,1.449l-0.25,0.4l-0.7-0.95c-0.533-0.732-1-1.282-1.399-1.649c-0.301-0.4-0.801-0.851-1.5-1.351l-0.9-0.6
			c0.3-0.066,0.467-0.116,0.5-0.15c0.267-0.2,0.433-0.55,0.5-1.05l0.05-24.5l2.05,1.65l0.65-1.051c0.166-0.232,0.35-0.482,0.55-0.75
			c0.333-0.433,0.642-0.75,0.925-0.949c0.283-0.2,0.642-0.351,1.075-0.45l1.25-0.15h0.5h0.2l-1,0.65
			c-0.7,0.667-1.05,1.467-1.05,2.399v9.9c0.433,0.167,1.032-0.05,1.8-0.65l1.1-1l1.601-1.85l0.45-0.55l1.6,1.899l1.05,0.9
			c0.5,0.5,0.75,0.917,0.75,1.25c0,0.434-0.059,0.759-0.175,0.975c-0.117,0.218-0.459,0.609-1.025,1.176
			c-0.199,0.3-0.566,0.667-1.1,1.1l-0.7,0.55l0.8,0.601l1.351,1.399c0.366,0.367,0.633,0.968,0.8,1.8l0.05,0.5v4.95
			c0,0.534,0.233,0.9,0.7,1.101L168.849,100.596z M163.199,88.946l0.101-0.5c0-0.467-0.176-0.858-0.525-1.176
			c-0.35-0.316-0.893-0.475-1.625-0.475c-0.367,0-0.768,0.233-1.2,0.7l-0.899,1.2v4.3h0.6c0.533-0.167,0.933-0.351,1.2-0.55
			l1.05-0.9c0.232-0.166,0.482-0.533,0.75-1.1c0.066-0.133,0.158-0.358,0.275-0.676C163.041,89.454,163.131,89.18,163.199,88.946z"
			/>
		<path d="M193.049,100.996l-2.101,1.649c-0.7,0.634-1.149,1.468-1.351,2.5l-0.549,0.051c-0.5,0-0.934-0.101-1.301-0.301
			c-0.367-0.199-0.75-0.516-1.15-0.949c-0.666-0.733-1.217-1.566-1.649-2.5l-2.05,1.5c-0.7,0.6-1.15,1.367-1.35,2.3l-0.551,0.05
			c-0.334,0-0.667-0.05-1-0.15c-0.334-0.1-0.816-0.433-1.449-1c-0.168-0.199-0.375-0.466-0.625-0.8
			c-0.25-0.333-0.476-0.683-0.676-1.05c-0.367-0.633-0.55-1.232-0.55-1.8v-12.7c0-0.467-0.284-0.883-0.851-1.25l-0.899-0.35
			l0.75-0.65l1.3-1.25c0.333-0.333,0.666-0.816,1-1.45l0.25-0.5l0.6,0.3c0.434,0.234,0.842,0.584,1.226,1.051
			c0.383,0.467,0.708,1.066,0.976,1.8l0.25,1v11c0,0.567,0.032,0.983,0.1,1.25l0.449,1.1c0.201,0.367,0.551,0.684,1.051,0.95
			c0.6,0.233,1.082,0.35,1.449,0.35l0.5-0.149l-0.1-0.601v-12.75c0-0.466-0.3-0.883-0.9-1.25l-0.899-0.3l0.75-0.649l1.3-1.2
			c0.333-0.4,0.525-0.633,0.575-0.7c0.05-0.066,0.157-0.25,0.325-0.55l0.4-0.75l0.949,0.5c0.232,0.134,0.525,0.417,0.875,0.85
			c0.35,0.434,0.658,1.034,0.926,1.8l0.25,0.95v11.05l0.149,1.2c0.032,0.3,0.175,0.675,0.425,1.125s0.642,0.792,1.176,1.025
			c0.266,0.134,0.516,0.233,0.75,0.3c0.232,0.067,0.5,0.1,0.799,0.1C192.799,101.146,192.949,101.096,193.049,100.996z"/>
	</g>
	<g>
		<path fill="#1E0F00" d="M26.726,10.496c-0.1,0.2-0.184,0.367-0.25,0.5c-0.334,0.633-0.567,1.117-0.7,1.45
			c-0.233,0.6-0.55,1.017-0.95,1.25c-0.934,0.767-2.5,1.15-4.7,1.15c-0.867,0-2.167-0.083-3.9-0.25c-2.867,0-5,0.3-6.4,0.9
			c-1.4,0.6-2.1,1.633-2.1,3.1l0.15,1.7c0.033,0.467,0.333,0.842,0.9,1.125c0.566,0.284,1.033,0.458,1.4,0.525l-0.2,0.15
			c-0.067,0.034-0.334,0.084-0.8,0.15l-1.05-0.15l-1.2-0.65c-0.567-0.4-1-0.883-1.3-1.45c-0.234-0.7-0.35-1.483-0.35-2.35v-0.85v-1
			c0.2-2.267,1.186-4.066,2.957-5.4c1.538-1.167,3.241-1.75,5.113-1.75c2.372,0,4.478,0.617,6.315,1.85
			c1.838,1.233,3.058,1.85,3.66,1.85c0.634,0,1.111-0.166,1.428-0.5c0.317-0.333,0.477-0.883,0.477-1.65
			c0-0.633,0.141-1.108,0.425-1.425c0.283-0.316,0.642-0.441,1.075-0.375c0.333,0.1,0.5,0.434,0.5,1
			C27.226,9.896,27.058,10.263,26.726,10.496z M34.976,10.446c-0.1,0.295-0.2,0.615-0.3,0.958s-0.267,0.729-0.5,1.154
			c-0.767,1.474-1.717,2.522-2.85,3.145l-0.9,0.393l-0.85,0.1l-0.8-0.05l-1.9-0.05h-0.5l-0.5,0.15v23.1l1.8,0.3l1.85,0.15
			c1.2,0,2.5-0.2,3.9-0.6l0.9-0.301l-2.85,3.027c-0.134,0.133-0.342,0.396-0.625,0.793c-0.284,0.397-0.559,0.777-0.825,1.141
			l-0.65,0.992l-1.4,0.199c-1.067,0.133-1.842,0.207-2.325,0.223c-0.483,0.018-0.875,0.025-1.175,0.025
			c-0.934,0-1.842-0.049-2.725-0.149c-0.884-0.1-1.759-0.249-2.625-0.449c-0.867-0.199-1.667-0.481-2.4-0.847
			c-0.734-0.365-1.4-0.848-2-1.446c-1.567-1.562-2.617-2.741-3.15-3.539c-1.367-2.126-2.05-4.586-2.05-7.377
			c0-2.459,0.4-4.67,1.2-6.631c0.566-1.428,1.466-2.857,2.7-4.287c0.367-0.398,0.8-0.814,1.3-1.246s1.033-0.848,1.6-1.246
			c1.133-0.831,2.433-1.478,3.9-1.944c1.466-0.465,3.216-0.848,5.25-1.146c0.866-0.1,1.5-0.515,1.9-1.246l0.85-1.396l1.3-2.042
			l0.25-0.358l0.85,0.45c0.266,0.133,0.566,0.233,0.9,0.3c0.333,0.067,0.6,0.117,0.8,0.15l1.75-0.15L34.976,10.446z M22.925,16.846
			l-0.6-0.05c-0.934,0-1.833,0.217-2.7,0.65c-1.367,0.634-2.7,1.8-4,3.5c-0.434,0.534-0.817,1.417-1.15,2.65
			c-0.1,0.6-0.184,1.175-0.25,1.725c-0.067,0.55-0.1,1.142-0.1,1.775c0,1.4,0.119,2.4,0.356,3l0.915,2.35
			c0.44,0.9,1.017,1.417,1.729,1.55l0.087-1.4l0.263-4.7v-0.8c0-1.666-0.084-2.966-0.25-3.9c-0.1-0.933-0.317-1.616-0.65-2.05
			l0.55-0.15c0.8-0.267,1.325-0.467,1.575-0.6c0.25-0.133,0.642-0.383,1.175-0.75c0.833-0.533,1.583-1.15,2.25-1.85L22.925,16.846z
			 M25.375,39.196V16.346c-0.692,0.268-1.263,0.65-1.712,1.15c-0.45,0.5-0.718,0.967-0.804,1.4
			c-0.086,0.434-0.147,0.842-0.182,1.225c-0.034,0.383-0.051,0.975-0.051,1.775v2.9l0.3,4.7v1.55l-0.95,0.45l-2.2,1.4
			c-0.6,0.4-1.233,0.917-1.9,1.55l-0.75,0.699l1.05,0.9C20.075,37.546,22.476,38.596,25.375,39.196z"/>
		<path fill="#1E0F00" d="M54.825,36.996c-0.067,0.667-0.125,1.1-0.175,1.3c-0.05,0.2-0.159,0.483-0.325,0.85
			c-0.667,1.534-1.884,2.734-3.65,3.601c-1.034,0.467-1.8,1.2-2.3,2.2l-0.45,1.3c-0.3-0.434-0.75-0.733-1.35-0.9l-0.8-0.05v6.35
			v2.301c0,0.332,0.116,0.683,0.35,1.05l0.3,0.45l-1.2-0.95c-0.2-0.134-0.4-0.417-0.6-0.851l-0.2-0.6l-0.6,0.75
			c-0.333,0.433-0.567,0.732-0.7,0.9c-0.267,0.332-0.5,0.6-0.7,0.8c-0.367,0.5-1.067,0.866-2.1,1.1l-1.35,0.25l0.7-0.85
			c0.466-0.601,0.783-1.184,0.95-1.75l0.35-1.65l0.05-0.85v-1.05v-7.25l0.05-14.95v-0.5c-0.134-0.7-0.55-1.117-1.25-1.25l1.85-1.85
			c0.4-0.5,0.616-0.767,0.65-0.8c0.2-0.266,0.4-0.6,0.6-1l0.25-0.35l0.65,0.55c0.433,0.333,0.85,0.767,1.25,1.3l0.75,1.5
			c0.1,0.3,0.2,0.518,0.3,0.65c0.867,0,1.583-0.217,2.15-0.65c0.1-0.1,0.3-0.325,0.6-0.675c0.3-0.35,0.517-0.625,0.65-0.825
			c0.266-0.333,0.583-0.85,0.95-1.55l0.4-0.8l0.65,0.4c1.033,0.667,1.683,1.167,1.95,1.5c0.267,0.333,0.583,0.85,0.95,1.55l0.4,0.95
			V36.996z M49.875,42.296v-12.15l-0.2-1.15c-0.3-0.833-0.884-1.25-1.75-1.25c-0.7,0-1.217,0.383-1.55,1.15l-0.25,1.15v10.75
			l0.2,0.4c0.133,0.199,0.366,0.417,0.7,0.649l1.2,0.351C48.525,42.263,49.075,42.296,49.875,42.296z"/>
		<path fill="#1E0F00" d="M73.425,38.596c0,0.601-0.284,1.3-0.85,2.101c-0.434,0.633-0.95,1.199-1.55,1.699
			c-0.334,0.2-0.8,0.768-1.4,1.7l-0.8,1.2h-0.85c-0.767,0-1.35-0.05-1.75-0.15c-0.867-0.199-1.559-0.582-2.075-1.149
			c-0.518-0.566-0.992-1.25-1.425-2.05c-0.434-0.801-0.65-1.533-0.65-2.2v-13.3h0.55c0.3,0,0.642-0.008,1.025-0.025
			c0.383-0.017,0.857-0.075,1.425-0.175c0.566-0.1,1.083-0.383,1.55-0.85c0.467-0.466,1-1.133,1.6-2l0.75-1.15
			c0.333,0.033,0.633,0.133,0.9,0.3c0.6,0.233,1.208,0.708,1.825,1.425c0.616,0.717,1.058,1.509,1.325,2.375l0.15,0.45l-0.15,1.1
			c-0.067,0.4-0.15,0.733-0.25,1c-0.1,0.267-0.268,0.534-0.5,0.8l-3.15,3.45c-0.167,0.168-0.317,0.334-0.45,0.5
			c-0.3,0.367-0.583,0.784-0.85,1.25l-0.55,0.851v3c0,0.667,0.3,1.25,0.9,1.75c0.266,0.167,0.575,0.317,0.925,0.45
			s0.675,0.199,0.975,0.199c0.533,0,0.991-0.216,1.375-0.649c0.383-0.433,0.575-0.9,0.575-1.4c0-0.232-0.067-0.482-0.2-0.75
			l-0.5-1.25c0-0.232,0.116-0.416,0.35-0.55c0.233-0.133,0.417-0.2,0.55-0.2c0.367,0,0.658,0.233,0.875,0.7
			C73.316,37.513,73.425,38.029,73.425,38.596z M69.725,30.046c0-0.466-0.275-1.116-0.825-1.95c-0.55-0.833-1.092-1.25-1.625-1.25
			v6.7l1.75-1.8C69.492,31.18,69.725,30.613,69.725,30.046z"/>
		<path fill="#1E0F00" d="M93.5,25.171c-0.217,2.05-0.325,4.792-0.325,8.225l0.05,6.25c0.167,1.268,0.55,1.95,1.15,2.051l-1,0.449
			l-2.35,1.051c-0.567,0.333-1.067,0.633-1.5,0.899c-0.167,0.101-0.45,0.284-0.85,0.55l-1,0.65c-0.267-0.533-0.517-0.916-0.75-1.15
			c-0.5-0.6-1.1-1.149-1.8-1.649c-1.2-0.833-2.55-1.383-4.05-1.65l-0.9-0.1v-14.7l0.5-1.15c0.533-0.8,0.925-1.3,1.175-1.5
			c0.25-0.2,0.5-0.358,0.75-0.475c0.25-0.116,0.542-0.241,0.875-0.375l1.05-0.35l0.65,0.95l1.15,1.4
			c0.1,0.1,0.308,0.259,0.625,0.475c0.316,0.217,0.575,0.392,0.775,0.525l0.8,0.4l0.15-1.85l0.35-1.65l0.6-1.5l0.35-0.75l-1.65,0.25
			c-1.434,0.167-2.55,0.25-3.35,0.25c-1.233,0-2.583-0.316-4.05-0.95c-1.367-0.667-2.167-1.467-2.4-2.4l-0.2-1.2l-0.05-1.2l0.15-1.8
			v-0.4c0.367,1.067,0.667,1.783,0.9,2.15c1,1.4,2.433,2.1,4.3,2.1c2.267,0,3.9-0.45,4.9-1.35l0.45-0.6
			c0.133,0.8,0.316,1.45,0.55,1.95c0.366,0.8,0.833,1.483,1.4,2.05c0.9,1,1.917,1.817,3.05,2.45l0.65,0.35
			C94.091,22.013,93.716,23.121,93.5,25.171z M89.375,39.096c-0.033-0.166-0.059-0.291-0.075-0.375
			c-0.017-0.083-0.042-0.175-0.075-0.274l-0.55-1.25v-9.351l-0.75-0.95c-0.267-0.4-0.65-0.6-1.15-0.6
			c-0.234,0.067-0.434,0.2-0.6,0.4l-0.7,0.8c-0.3,0.3-0.5,0.667-0.6,1.1l-0.1,0.6l0.1,12.1l0.5,0.15
			c0.267-0.033,0.55-0.176,0.85-0.426c0.3-0.25,0.617-0.457,0.95-0.625l1.3-0.3l0.95-0.2L89.375,39.096z"/>
		<path fill="#1E0F00" d="M106.625,28.646c0,0.1,0,0.483,0,1.15v3.3l3.65-0.35v-3.8v-2.05l-0.7-0.8l1.15-2.1l1.5-1.35l0.95-0.4
			l1.05,1.1l0.8,0.7l0.9,1.6l-1.1,0.95v13.15c0,0.5,0.3,0.833,0.9,1l0.95,0.05l-0.65,0.65l-1.05,1.199l-0.9,1.65l-0.55,1l-1.55-1.75
			l-1-1l-0.7-0.55v-7.101l-3.65,0.351v3.6c0,0.9,0.3,1.601,0.9,2.101c0.1,0.1,0.4,0.233,0.9,0.399l-0.6,0.5l-1.15,1.05
			c-0.1,0.101-0.25,0.334-0.45,0.7c-0.2,0.367-0.367,0.7-0.5,1l-0.25,0.601l-0.55-0.9c-0.133-0.232-0.325-0.525-0.575-0.875
			s-0.409-0.558-0.475-0.625c-0.234-0.232-0.8-0.616-1.7-1.15l-0.05-2.8v-10.95c0-0.667-0.284-1.183-0.85-1.55l-0.8-0.4l0.5-0.4
			l1.15-1.1l1.65-2.3l0.6,0.3l2.25,2l0.6,1.1l0.35,0.4l-0.6,0.4C106.741,26.713,106.625,27.479,106.625,28.646z"/>
		<path fill="#1E0F00" d="M133.825,38.596c0,0.601-0.284,1.3-0.85,2.101c-0.434,0.633-0.95,1.199-1.55,1.699
			c-0.334,0.2-0.8,0.768-1.4,1.7l-0.8,1.2h-0.85c-0.767,0-1.35-0.05-1.75-0.15c-0.867-0.199-1.559-0.582-2.075-1.149
			c-0.518-0.566-0.992-1.25-1.425-2.05c-0.434-0.801-0.65-1.533-0.65-2.2v-13.3h0.55c0.3,0,0.642-0.008,1.025-0.025
			c0.383-0.017,0.857-0.075,1.425-0.175c0.566-0.1,1.083-0.383,1.55-0.85c0.467-0.466,1-1.133,1.6-2l0.75-1.15
			c0.333,0.033,0.633,0.133,0.9,0.3c0.6,0.233,1.208,0.708,1.825,1.425c0.616,0.717,1.058,1.509,1.325,2.375l0.15,0.45l-0.15,1.1
			c-0.067,0.4-0.15,0.733-0.25,1c-0.1,0.267-0.268,0.534-0.5,0.8l-3.15,3.45c-0.167,0.168-0.317,0.334-0.45,0.5
			c-0.3,0.367-0.583,0.784-0.85,1.25l-0.55,0.851v3c0,0.667,0.3,1.25,0.9,1.75c0.266,0.167,0.575,0.317,0.925,0.45
			s0.675,0.199,0.975,0.199c0.533,0,0.991-0.216,1.375-0.649c0.383-0.433,0.575-0.9,0.575-1.4c0-0.232-0.067-0.482-0.2-0.75
			l-0.5-1.25c0-0.232,0.116-0.416,0.35-0.55c0.233-0.133,0.417-0.2,0.55-0.2c0.367,0,0.658,0.233,0.875,0.7
			C133.716,37.513,133.825,38.029,133.825,38.596z M130.125,30.046c0-0.466-0.275-1.116-0.825-1.95
			c-0.55-0.833-1.092-1.25-1.625-1.25v6.7l1.75-1.8C129.891,31.18,130.125,30.613,130.125,30.046z"/>
		<path fill="#1E0F00" d="M140.924,29.046v-0.75c0.066-0.9-0.25-1.417-0.95-1.55l1.85-1.85c0.4-0.5,0.616-0.767,0.65-0.8
			c0.2-0.266,0.4-0.6,0.6-1l0.25-0.35l0.65,0.55c0.433,0.333,0.851,0.767,1.25,1.3l0.8,1.65c0.434,0.167,1.033-0.05,1.801-0.65
			l1.1-1.45l1.199-1.35l0.4-0.25l0.551,0.2l0.25,0.2l0.85,0.7l0.85,0.9c0.5,0.8,0.75,1.367,0.75,1.7
			c0,0.434-0.059,0.758-0.175,0.975c-0.117,0.217-0.458,0.842-1.024,1.875c-0.201,0.3-0.5,0.667-0.9,1.1l-0.85,0.85l1.5,1.3
			l0.949,1.25l0.45,0.601v2.85c0,0.733-0.25,1.45-0.75,2.15c-0.601,0.899-1.534,1.617-2.8,2.149c-0.967,0.367-1.934,1.15-2.9,2.351
			l-1.05,1.6l-2.9-2.6l-2.4-1.9l-0.95-0.65c0.267-0.066,0.483-0.191,0.65-0.375c0.167-0.183,0.267-0.457,0.3-0.824V29.046z
			 M149.075,40.896v-6.649c0-0.333-0.117-0.65-0.351-0.95s-0.567-0.45-1-0.45c-0.367,0-0.767,0.218-1.2,0.65
			c-0.434,0.434-0.65,0.817-0.65,1.149v3.2l0.25,0.65c0.201,0.467,0.451,0.85,0.75,1.149
			C147.474,40.479,148.208,40.896,149.075,40.896z M149.274,28.546l0.1-0.45c0-0.366-0.174-0.683-0.524-0.95
			c-0.351-0.267-0.608-0.4-0.774-0.4c-0.367,0-0.768,0.2-1.201,0.6l-0.899,1v3.55h0.601c0.532-0.133,0.932-0.283,1.199-0.45
			C148.607,30.513,149.107,29.546,149.274,28.546z"/>
		<path fill="#1E0F00" d="M172.274,38.596c0,0.601-0.283,1.3-0.85,2.101c-0.434,0.633-0.951,1.199-1.551,1.699
			c-0.334,0.2-0.8,0.768-1.4,1.7l-0.799,1.2h-0.851c-0.767,0-1.351-0.05-1.75-0.15c-0.867-0.199-1.559-0.582-2.075-1.149
			c-0.518-0.566-0.992-1.25-1.425-2.05c-0.434-0.801-0.649-1.533-0.649-2.2v-13.3h0.549c0.301,0,0.643-0.008,1.025-0.025
			c0.383-0.017,0.857-0.075,1.426-0.175c0.566-0.1,1.082-0.383,1.549-0.85c0.467-0.466,1-1.133,1.601-2l0.75-1.15
			c0.333,0.033,0.633,0.133,0.899,0.3c0.601,0.233,1.209,0.708,1.826,1.425c0.615,0.717,1.057,1.509,1.324,2.375l0.15,0.45
			l-0.15,1.1c-0.066,0.4-0.15,0.733-0.25,1c-0.1,0.267-0.268,0.534-0.5,0.8l-3.15,3.45c-0.166,0.168-0.316,0.334-0.449,0.5
			c-0.301,0.367-0.584,0.784-0.85,1.25l-0.551,0.851v3c0,0.667,0.301,1.25,0.9,1.75c0.266,0.167,0.574,0.317,0.925,0.45
			s0.675,0.199,0.976,0.199c0.532,0,0.99-0.216,1.375-0.649c0.383-0.433,0.574-0.9,0.574-1.4c0-0.232-0.066-0.482-0.199-0.75
			l-0.5-1.25c0-0.232,0.115-0.416,0.35-0.55c0.232-0.133,0.416-0.2,0.55-0.2c0.366,0,0.657,0.233,0.875,0.7
			C172.165,37.513,172.274,38.029,172.274,38.596z M168.574,30.046c0-0.466-0.274-1.116-0.825-1.95
			c-0.55-0.833-1.092-1.25-1.625-1.25v6.7l1.75-1.8C168.34,31.18,168.574,30.613,168.574,30.046z"/>
		<path fill="#1E0F00" d="M194.374,40.596l-0.6,0.601c-0.533,0.5-0.9,0.917-1.1,1.25l-1,1.55l-0.601,1l-0.45-0.601
			c-0.3-0.466-0.6-0.85-0.9-1.149l-0.899-0.9l-0.649-0.5v-5.35c0-0.267-0.043-0.533-0.125-0.8c-0.084-0.267-0.209-0.533-0.375-0.801
			c-0.367-0.6-0.784-0.933-1.25-1l-0.4,0.101c-0.367,0.1-0.658,0.259-0.875,0.475c-0.217,0.218-0.408,0.525-0.575,0.925v4.551
			c0,0.633,0.25,1.133,0.75,1.5l0.8,0.3l-0.6,0.5c-0.533,0.5-0.918,0.899-1.15,1.2l-1.199,1.449l-0.25,0.4l-0.701-0.95
			c-0.533-0.732-1-1.282-1.399-1.649c-0.3-0.4-0.8-0.851-1.5-1.351l-0.899-0.6c0.299-0.066,0.466-0.116,0.5-0.15
			c0.266-0.2,0.432-0.55,0.5-1.05l0.049-24.5l2.051,1.65l0.65-1.05c0.166-0.233,0.35-0.483,0.549-0.75
			c0.334-0.433,0.643-0.75,0.926-0.95c0.283-0.2,0.641-0.35,1.074-0.45l1.25-0.15h0.5h0.201l-1,0.65
			c-0.701,0.667-1.051,1.467-1.051,2.4v9.9c0.434,0.167,1.033-0.05,1.801-0.65l1.1-1l1.6-1.85l0.45-0.55l1.601,1.9l1.049,0.9
			c0.5,0.5,0.75,0.917,0.75,1.25c0,0.434-0.059,0.759-0.174,0.975c-0.117,0.217-0.459,0.608-1.025,1.175
			c-0.2,0.3-0.567,0.667-1.1,1.1l-0.701,0.55l0.801,0.6l1.35,1.4c0.367,0.367,0.633,0.968,0.801,1.8l0.049,0.5v4.95
			c0,0.534,0.233,0.9,0.701,1.101L194.374,40.596z M188.723,28.946l0.101-0.5c0-0.466-0.175-0.858-0.524-1.175
			c-0.351-0.316-0.893-0.475-1.625-0.475c-0.367,0-0.768,0.233-1.201,0.7l-0.899,1.2v4.3h0.601c0.532-0.167,0.932-0.35,1.199-0.55
			l1.051-0.9c0.232-0.167,0.482-0.533,0.75-1.1c0.066-0.133,0.157-0.358,0.274-0.675C188.565,29.455,188.657,29.18,188.723,28.946z"
			/>
		<path fill="#1E0F00" d="M213.624,41.146c-0.934,0-1.55,0.034-1.85,0.101c-0.7,0-1.25,0.075-1.65,0.225
			c-0.4,0.15-0.768,0.393-1.1,0.726c-0.434,0.5-0.867,1.149-1.301,1.949l-0.549,1.15h-0.451c-0.732,0-1.333-0.083-1.799-0.25
			c-0.834-0.267-1.492-0.717-1.976-1.35s-0.942-1.367-1.375-2.2l-0.351-0.8v-11.55c0-0.667-0.166-1.233-0.5-1.7l-0.25-0.3h0.75
			c0.167,0,0.334,0,0.5,0c0.201-0.066,0.334-0.1,0.4-0.1c1.166-0.133,2.208-0.566,3.125-1.3c0.916-0.733,1.758-1.65,2.525-2.75
			l0.4-0.75c0.232,0.033,0.457,0.067,0.674,0.1c0.217,0.034,0.441,0.1,0.676,0.2c1.033,0.333,1.816,0.867,2.35,1.6
			c0.566,0.667,1.033,1.367,1.4,2.1l0.35,0.8V41.146z M209.024,41.246v-12.35c0-0.333-0.067-0.617-0.2-0.85
			c-0.034-0.167-0.25-0.417-0.649-0.75c-0.135-0.1-0.268-0.183-0.4-0.25c-0.334-0.167-0.684-0.283-1.051-0.35l-0.85-0.15v12.65
			c0,0.367,0.133,0.684,0.4,0.949l0.8,0.7c0.267,0.167,0.583,0.284,0.95,0.351L209.024,41.246z"/>
		<path fill="#1E0F00" d="M221.223,29.046v-0.75c0.066-0.9-0.25-1.417-0.949-1.55l1.85-1.85c0.4-0.5,0.616-0.767,0.65-0.8
			c0.199-0.266,0.399-0.6,0.6-1l0.25-0.35l0.65,0.55c0.432,0.333,0.85,0.767,1.25,1.3l0.799,1.65c0.434,0.167,1.033-0.05,1.801-0.65
			l1.1-1.45l1.2-1.35l0.399-0.25l0.551,0.2l0.25,0.2l0.85,0.7l0.85,0.9c0.5,0.8,0.75,1.367,0.75,1.7
			c0,0.434-0.059,0.758-0.174,0.975c-0.117,0.217-0.459,0.842-1.025,1.875c-0.2,0.3-0.5,0.667-0.9,1.1l-0.85,0.85l1.5,1.3
			l0.949,1.25l0.451,0.601v2.85c0,0.733-0.25,1.45-0.75,2.15c-0.601,0.899-1.534,1.617-2.801,2.149
			c-0.967,0.367-1.934,1.15-2.9,2.351l-1.049,1.6l-2.9-2.6l-2.4-1.9l-0.949-0.65c0.266-0.066,0.482-0.191,0.649-0.375
			c0.167-0.183,0.267-0.457,0.3-0.824V29.046z M229.374,40.896v-6.649c0-0.333-0.117-0.65-0.35-0.95c-0.234-0.3-0.568-0.45-1-0.45
			c-0.367,0-0.768,0.218-1.201,0.65c-0.434,0.434-0.649,0.817-0.649,1.149v3.2l0.25,0.65c0.2,0.467,0.45,0.85,0.75,1.149
			C227.774,40.479,228.506,40.896,229.374,40.896z M229.573,28.546l0.101-0.45c0-0.366-0.175-0.683-0.524-0.95
			c-0.351-0.267-0.609-0.4-0.775-0.4c-0.367,0-0.768,0.2-1.2,0.6l-0.899,1v3.55h0.6c0.533-0.133,0.933-0.283,1.199-0.45
			C228.907,30.513,229.407,29.546,229.573,28.546z"/>
		<path fill="#1E0F00" d="M242.273,28.496v-0.5c-0.134-0.7-0.483-1.117-1.05-1.25l1.65-1.85c0.399-0.5,0.616-0.767,0.649-0.8
			c0.2-0.266,0.4-0.6,0.601-1l0.25-0.35l0.399,0.55l0.8,1.3l0.9,2v7.25l0.8-0.35c0.433-0.2,0.717-0.342,0.851-0.425
			c0.133-0.083,0.449-0.308,0.949-0.675c0.5-0.466,1.083-1.117,1.75-1.95l0.25-0.5l0.5,0.5l0.95,1.15l0.8,1.25l0.4,0.601v3.6
			c0,0.733-0.217,1.45-0.65,2.15c-0.5,0.899-1.283,1.617-2.35,2.149c-1.033,0.367-2.033,1.15-3,2.351l-1.05,1.6l-2.15-2.6
			l-2.2-2.051l-1.1-0.649c0.3-0.066,0.541-0.191,0.725-0.375c0.184-0.183,0.292-0.458,0.325-0.825V28.496z M249.523,40.896v-5.25
			c0-0.332-0.117-0.649-0.35-0.949c-0.233-0.301-0.567-0.45-1-0.45c-0.367,0-0.768,0.217-1.2,0.649
			c-0.434,0.434-0.65,0.867-0.65,1.301v1.649l0.25,0.65c0.2,0.467,0.45,0.85,0.75,1.149
			C247.923,40.479,248.656,40.896,249.523,40.896z M261.423,41.746l-0.5,0.5l-0.8,1l-1.65,2.05l-0.5-0.65l-0.85-1.5
			c-0.268-0.266-0.5-0.482-0.7-0.649c-0.3-0.267-0.617-0.5-0.95-0.7l-0.95-0.5c0.233-0.033,0.366-0.066,0.4-0.1
			c0.433-0.233,0.732-0.75,0.899-1.551V28.246l-0.199-0.45l-0.5-0.75l-0.851-0.55l-0.5-0.3l0.601-0.45l1.1-1.1l1.65-2.4l0.699,0.7
			l1.051,1.2l1.55,1.05l0.75,0.45l-1.15,1.3v13.4c0,0.367,0.233,0.733,0.7,1.101L261.423,41.746z"/>
		<path fill="#1E0F00" d="M278.823,38.596c0,0.601-0.283,1.3-0.85,2.101c-0.434,0.633-0.951,1.199-1.551,1.699
			c-0.334,0.2-0.799,0.768-1.4,1.7l-0.799,1.2h-0.85c-0.768,0-1.352-0.05-1.75-0.15c-0.867-0.199-1.559-0.582-2.076-1.149
			c-0.518-0.566-0.992-1.25-1.424-2.05c-0.434-0.801-0.65-1.533-0.65-2.2v-13.3h0.549c0.301,0,0.643-0.008,1.025-0.025
			c0.383-0.017,0.857-0.075,1.426-0.175c0.566-0.1,1.082-0.383,1.549-0.85c0.467-0.466,1-1.133,1.602-2l0.75-1.15
			c0.332,0.033,0.633,0.133,0.898,0.3c0.602,0.233,1.209,0.708,1.826,1.425c0.615,0.717,1.057,1.509,1.324,2.375l0.15,0.45
			l-0.15,1.1c-0.066,0.4-0.15,0.733-0.25,1c-0.1,0.267-0.268,0.534-0.5,0.8l-3.15,3.45c-0.166,0.168-0.316,0.334-0.449,0.5
			c-0.301,0.367-0.584,0.784-0.85,1.25l-0.551,0.851v3c0,0.667,0.301,1.25,0.9,1.75c0.266,0.167,0.574,0.317,0.926,0.45
			c0.35,0.133,0.674,0.199,0.975,0.199c0.533,0,0.99-0.216,1.375-0.649c0.383-0.433,0.574-0.9,0.574-1.4
			c0-0.232-0.066-0.482-0.199-0.75l-0.5-1.25c0-0.232,0.115-0.416,0.35-0.55c0.232-0.133,0.416-0.2,0.551-0.2
			c0.365,0,0.656,0.233,0.875,0.7C278.713,37.513,278.823,38.029,278.823,38.596z M275.124,30.046c0-0.466-0.275-1.116-0.826-1.95
			c-0.549-0.833-1.092-1.25-1.625-1.25v6.7l1.75-1.8C274.889,31.18,275.124,30.613,275.124,30.046z"/>
		<path fill="#1E0F00" d="M107.6,100.596l-0.6,0.601c-0.534,0.5-0.9,0.917-1.1,1.25l-1,1.55l-0.6,1l-0.45-0.601
			c-0.3-0.466-0.6-0.85-0.9-1.149l-0.9-0.9l-0.65-0.5v-5.35c0-0.267-0.042-0.533-0.125-0.8c-0.083-0.267-0.208-0.533-0.375-0.801
			c-0.367-0.6-0.784-0.933-1.25-1l-0.4,0.101c-0.367,0.1-0.659,0.259-0.875,0.475c-0.217,0.218-0.409,0.525-0.575,0.925v4.551
			c0,0.633,0.25,1.133,0.75,1.5l0.8,0.3l-0.6,0.5c-0.534,0.5-0.917,0.899-1.15,1.2l-1.2,1.449l-0.25,0.4l-0.7-0.95
			c-0.533-0.732-1-1.282-1.4-1.649c-0.3-0.4-0.8-0.851-1.5-1.351l-0.9-0.6c0.3-0.066,0.466-0.116,0.5-0.15
			c0.267-0.2,0.433-0.55,0.5-1.05l0.05-24.5l2.05,1.65l0.65-1.051c0.167-0.232,0.35-0.482,0.55-0.75
			c0.333-0.433,0.642-0.75,0.925-0.949c0.283-0.2,0.641-0.351,1.075-0.45l1.25-0.15h0.5h0.2l-1,0.65
			c-0.7,0.667-1.05,1.467-1.05,2.399v9.9c0.433,0.167,1.033-0.05,1.8-0.65l1.1-1l1.6-1.85l0.45-0.55l1.6,1.899l1.05,0.9
			c0.5,0.5,0.75,0.917,0.75,1.25c0,0.434-0.059,0.759-0.175,0.975c-0.117,0.218-0.458,0.609-1.025,1.176
			c-0.2,0.3-0.567,0.667-1.1,1.1l-0.7,0.55l0.8,0.601l1.35,1.399c0.366,0.367,0.633,0.968,0.8,1.8l0.05,0.5v4.95
			c0,0.534,0.233,0.9,0.7,1.101L107.6,100.596z M101.949,88.946l0.1-0.5c0-0.467-0.175-0.858-0.525-1.176
			c-0.35-0.316-0.892-0.475-1.625-0.475c-0.367,0-0.767,0.233-1.2,0.7l-0.9,1.2v4.3h0.6c0.533-0.167,0.933-0.351,1.2-0.55l1.05-0.9
			c0.233-0.166,0.483-0.533,0.75-1.1c0.066-0.133,0.158-0.358,0.275-0.676C101.791,89.454,101.882,89.18,101.949,88.946z"/>
		<path fill="#1E0F00" d="M131.949,81.946l0.65-0.351c1.133-0.633,2.15-1.45,3.05-2.45c0.566-0.566,1.033-1.25,1.4-2.05
			c0.233-0.5,0.417-1.149,0.55-1.95l0.45,0.601c1,0.899,2.633,1.35,4.9,1.35c1.866,0,3.299-0.7,4.299-2.1
			c0.233-0.366,0.533-1.083,0.9-2.15v0.4l0.15,1.8l-0.051,1.2l-0.199,1.2c-0.234,0.934-1.033,1.733-2.4,2.399
			c-1.467,0.634-2.817,0.95-4.05,0.95c-0.8,0-1.917-0.083-3.35-0.25l-1.65-0.25l0.35,0.75l0.6,1.5l0.35,1.65l0.15,1.85l0.8-0.4
			c0.2-0.133,0.458-0.308,0.775-0.524c0.316-0.217,0.525-0.375,0.625-0.476l1.15-1.399l0.65-0.95l1.05,0.35
			c0.333,0.134,0.625,0.259,0.875,0.375c0.25,0.117,0.5,0.275,0.75,0.476s0.642,0.7,1.175,1.5l0.5,1.149v14.7l-0.9,0.101
			c-1.5,0.267-2.849,0.816-4.049,1.649c-0.7,0.5-1.3,1.05-1.8,1.65c-0.234,0.233-0.484,0.617-0.75,1.149l-1-0.649
			c-0.4-0.267-0.684-0.45-0.85-0.55c-0.434-0.267-0.934-0.566-1.5-0.9l-2.35-1.05l-1-0.45c0.6-0.1,0.983-0.783,1.15-2.05l0.05-6.25
			c0-3.433-0.109-6.175-0.325-8.226C132.857,83.221,132.482,82.113,131.949,81.946z M137.149,99.996l0.95,0.2l1.3,0.3
			c0.333,0.167,0.65,0.375,0.95,0.625c0.3,0.25,0.583,0.392,0.85,0.425l0.5-0.15l0.1-12.1l-0.1-0.6c-0.1-0.434-0.3-0.801-0.6-1.101
			l-0.7-0.8c-0.167-0.2-0.367-0.333-0.6-0.4c-0.5,0-0.884,0.2-1.15,0.601l-0.75,0.95v9.35l-0.55,1.25
			c-0.034,0.1-0.059,0.192-0.075,0.275c-0.018,0.083-0.042,0.208-0.075,0.375L137.149,99.996z"/>
		<path fill="#1E0F00" d="M168.849,100.596l-0.601,0.601c-0.533,0.5-0.899,0.917-1.1,1.25l-1,1.55l-0.6,1l-0.45-0.601
			c-0.3-0.466-0.601-0.85-0.9-1.149l-0.899-0.9l-0.65-0.5v-5.35c0-0.267-0.042-0.533-0.125-0.8
			c-0.084-0.267-0.209-0.533-0.375-0.801c-0.367-0.6-0.783-0.933-1.25-1l-0.4,0.101c-0.367,0.1-0.658,0.259-0.875,0.475
			c-0.217,0.218-0.408,0.525-0.574,0.925v4.551c0,0.633,0.25,1.133,0.75,1.5l0.8,0.3l-0.601,0.5c-0.533,0.5-0.917,0.899-1.149,1.2
			l-1.2,1.449l-0.25,0.4l-0.7-0.95c-0.533-0.732-1-1.282-1.399-1.649c-0.301-0.4-0.801-0.851-1.5-1.351l-0.9-0.6
			c0.3-0.066,0.467-0.116,0.5-0.15c0.267-0.2,0.433-0.55,0.5-1.05l0.05-24.5l2.05,1.65l0.65-1.051c0.166-0.232,0.35-0.482,0.55-0.75
			c0.333-0.433,0.642-0.75,0.925-0.949c0.283-0.2,0.642-0.351,1.075-0.45l1.25-0.15h0.5h0.2l-1,0.65
			c-0.7,0.667-1.05,1.467-1.05,2.399v9.9c0.433,0.167,1.032-0.05,1.8-0.65l1.1-1l1.601-1.85l0.45-0.55l1.6,1.899l1.05,0.9
			c0.5,0.5,0.75,0.917,0.75,1.25c0,0.434-0.059,0.759-0.175,0.975c-0.117,0.218-0.459,0.609-1.025,1.176
			c-0.199,0.3-0.566,0.667-1.1,1.1l-0.7,0.55l0.8,0.601l1.351,1.399c0.366,0.367,0.633,0.968,0.8,1.8l0.05,0.5v4.95
			c0,0.534,0.233,0.9,0.7,1.101L168.849,100.596z M163.199,88.946l0.101-0.5c0-0.467-0.176-0.858-0.525-1.176
			c-0.35-0.316-0.893-0.475-1.625-0.475c-0.367,0-0.768,0.233-1.2,0.7l-0.899,1.2v4.3h0.6c0.533-0.167,0.933-0.351,1.2-0.55
			l1.05-0.9c0.232-0.166,0.482-0.533,0.75-1.1c0.066-0.133,0.158-0.358,0.275-0.676C163.041,89.454,163.131,89.18,163.199,88.946z"
			/>
		<path fill="#1E0F00" d="M193.049,100.996l-2.101,1.649c-0.7,0.634-1.149,1.468-1.351,2.5l-0.549,0.051
			c-0.5,0-0.934-0.101-1.301-0.301c-0.367-0.199-0.75-0.516-1.15-0.949c-0.666-0.733-1.217-1.566-1.649-2.5l-2.05,1.5
			c-0.7,0.6-1.15,1.367-1.35,2.3l-0.551,0.05c-0.334,0-0.667-0.05-1-0.15c-0.334-0.1-0.816-0.433-1.449-1
			c-0.168-0.199-0.375-0.466-0.625-0.8c-0.25-0.333-0.476-0.683-0.676-1.05c-0.367-0.633-0.55-1.232-0.55-1.8v-12.7
			c0-0.467-0.284-0.883-0.851-1.25l-0.899-0.35l0.75-0.65l1.3-1.25c0.333-0.333,0.666-0.816,1-1.45l0.25-0.5l0.6,0.3
			c0.434,0.234,0.842,0.584,1.226,1.051c0.383,0.467,0.708,1.066,0.976,1.8l0.25,1v11c0,0.567,0.032,0.983,0.1,1.25l0.449,1.1
			c0.201,0.367,0.551,0.684,1.051,0.95c0.6,0.233,1.082,0.35,1.449,0.35l0.5-0.149l-0.1-0.601v-12.75c0-0.466-0.3-0.883-0.9-1.25
			l-0.899-0.3l0.75-0.649l1.3-1.2c0.333-0.4,0.525-0.633,0.575-0.7c0.05-0.066,0.157-0.25,0.325-0.55l0.4-0.75l0.949,0.5
			c0.232,0.134,0.525,0.417,0.875,0.85c0.35,0.434,0.658,1.034,0.926,1.8l0.25,0.95v11.05l0.149,1.2
			c0.032,0.3,0.175,0.675,0.425,1.125s0.642,0.792,1.176,1.025c0.266,0.134,0.516,0.233,0.75,0.3c0.232,0.067,0.5,0.1,0.799,0.1
			C192.799,101.146,192.949,101.096,193.049,100.996z"/>
	</g>
</g>
<g>
	<path fill="none" d="M130.658,68.013c0,14.141,0,28.281,0,42.421c-7.032,0-14.064,0-21.096,0c0-14.14,0-28.28,0-42.421
		c0.514,1.019,1.029,2.036,1.543,3.054c0.876,1.734,1.765,3.463,2.626,5.205c0.501,1.015,0.635,2.074,0.5,3.222
		c-0.205,1.741-0.342,3.497-0.367,5.248c-0.034,2.421,1.041,4.332,2.986,5.762c0.269,0.198,0.518,0.423,0.749,0.613
		c-0.387,1.76-0.228,2.214,0.977,3.441c0.224,0.229,0.344,0.652,0.35,0.988c0.032,1.985-0.041,3.974,0.03,5.957
		c0.083,2.328-0.822,4.196-2.581,5.6c-1.152,0.918-2.488,1.608-3.744,2.396c-0.26,0.163-0.534,0.305-0.954,0.543
		c1.876,0.299,15.97,0.207,16.765-0.112c-0.401-0.195-0.733-0.357-1.066-0.519c-1.662-0.805-3.212-1.768-4.438-3.178
		c-0.979-1.125-1.632-2.405-1.648-3.926c-0.025-2.291-0.016-4.583,0.003-6.874c0.002-0.275,0.073-0.668,0.259-0.806
		c1.249-0.922,1.507-2.122,1.054-3.543c0.283-0.216,0.521-0.403,0.765-0.582c1.908-1.4,2.973-3.266,2.988-5.646
		c0.008-1.294-0.004-2.61-0.225-3.878c-0.383-2.201-0.073-4.213,1.007-6.172C128.372,72.575,129.491,70.28,130.658,68.013z"/>
	<g>
		<path fill="none" stroke="#FFFFFF" stroke-width="2" d="M130.658,68.013c-1.167,2.268-2.287,4.562-3.517,6.795
			c-1.08,1.959-1.39,3.971-1.007,6.172c0.221,1.268,0.233,2.584,0.225,3.878c-0.015,2.38-1.08,4.245-2.988,5.646
			c-0.244,0.179-0.481,0.366-0.765,0.582c0.453,1.421,0.195,2.621-1.054,3.543c-0.187,0.138-0.257,0.53-0.259,0.806
			c-0.019,2.291-0.028,4.583-0.003,6.874c0.016,1.521,0.669,2.801,1.648,3.926c1.227,1.41,2.776,2.373,4.438,3.178
			c0.333,0.161,0.666,0.323,1.066,0.519c-0.795,0.319-14.889,0.411-16.765,0.112c0.42-0.238,0.694-0.38,0.954-0.543
			c1.256-0.788,2.592-1.479,3.744-2.396c1.759-1.403,2.665-3.271,2.581-5.6c-0.071-1.983,0.001-3.972-0.03-5.957
			c-0.005-0.336-0.125-0.76-0.35-0.988c-1.205-1.228-1.364-1.682-0.977-3.441c-0.231-0.19-0.48-0.415-0.749-0.613
			c-1.945-1.43-3.02-3.341-2.986-5.762c0.024-1.751,0.162-3.507,0.367-5.248c0.135-1.147,0.002-2.207-0.5-3.222
			c-0.861-1.742-1.75-3.471-2.626-5.205c-0.515-1.018-1.029-2.035-1.543-3.054c0.076-0.152,0.147-0.435,0.23-0.438
			c0.763-0.034,1.528-0.02,2.292-0.02c0.218,0.055,0.435,0.146,0.655,0.159c4.913,0.288,9.827,0.288,14.741,0
			c0.221-0.013,0.437-0.104,0.655-0.159c0.764,0,1.529-0.015,2.292,0.02C130.511,67.578,130.582,67.86,130.658,68.013z
			 M112.938,70.686c-0.032,0.015-0.065,0.028-0.098,0.042c0.749,1.35,1.501,2.697,2.246,4.049c0.489,0.887,0.652,1.83,0.655,2.852
			c0.01,2.666,0.074,5.334,0.185,7.997c0.062,1.49,0.762,2.508,2.201,3.421c-0.157-0.267-0.241-0.423-0.338-0.57
			c-0.698-1.054-0.945-2.182-0.854-3.465c0.148-2.088,0.048-4.195,0.227-6.279c0.217-2.534-0.792-4.517-2.439-6.281
			C114.153,71.839,113.535,71.272,112.938,70.686z"/>
		<path fill-rule="evenodd" clip-rule="evenodd" d="M130.658,68.013c-1.167,2.268-2.287,4.562-3.517,6.795
			c-1.08,1.959-1.39,3.971-1.007,6.172c0.221,1.268,0.233,2.584,0.225,3.878c-0.015,2.38-1.08,4.245-2.988,5.646
			c-0.244,0.179-0.481,0.366-0.765,0.582c0.453,1.421,0.195,2.621-1.054,3.543c-0.187,0.138-0.257,0.53-0.259,0.806
			c-0.019,2.291-0.028,4.583-0.003,6.874c0.016,1.521,0.669,2.801,1.648,3.926c1.227,1.41,2.776,2.373,4.438,3.178
			c0.333,0.161,0.666,0.323,1.066,0.519c-0.795,0.319-14.889,0.411-16.765,0.112c0.42-0.238,0.694-0.38,0.954-0.543
			c1.256-0.788,2.592-1.479,3.744-2.396c1.759-1.403,2.665-3.271,2.581-5.6c-0.071-1.983,0.001-3.972-0.03-5.957
			c-0.005-0.336-0.125-0.76-0.35-0.988c-1.205-1.228-1.364-1.682-0.977-3.441c-0.231-0.19-0.48-0.415-0.749-0.613
			c-1.945-1.43-3.02-3.341-2.986-5.762c0.024-1.751,0.162-3.507,0.367-5.248c0.135-1.147,0.002-2.207-0.5-3.222
			c-0.861-1.742-1.75-3.471-2.626-5.205c-0.515-1.018-1.029-2.035-1.543-3.054c0.076-0.152,0.147-0.435,0.23-0.438
			c0.763-0.034,1.528-0.02,2.292-0.02c0.218,0.055,0.435,0.146,0.655,0.159c4.913,0.288,9.827,0.288,14.741,0
			c0.221-0.013,0.437-0.104,0.655-0.159c0.764,0,1.529-0.015,2.292,0.02C130.511,67.578,130.582,67.86,130.658,68.013z
			 M112.938,70.686c-0.032,0.015-0.065,0.028-0.098,0.042c0.749,1.35,1.501,2.697,2.246,4.049c0.489,0.887,0.652,1.83,0.655,2.852
			c0.01,2.666,0.074,5.334,0.185,7.997c0.062,1.49,0.762,2.508,2.201,3.421c-0.157-0.267-0.241-0.423-0.338-0.57
			c-0.698-1.054-0.945-2.182-0.854-3.465c0.148-2.088,0.048-4.195,0.227-6.279c0.217-2.534-0.792-4.517-2.439-6.281
			C114.153,71.839,113.535,71.272,112.938,70.686z"/>
	</g>
	<path fill-rule="evenodd" clip-rule="evenodd" fill="none" d="M128.136,67.555c-0.218,0.055-0.435,0.146-0.655,0.159
		c-4.914,0.288-9.828,0.288-14.741,0c-0.221-0.013-0.437-0.104-0.655-0.159C117.435,67.555,122.785,67.555,128.136,67.555z"/>
	<path fill-rule="evenodd" clip-rule="evenodd" fill="none" d="M112.938,70.686c0.597,0.587,1.215,1.153,1.785,1.765
		c1.647,1.765,2.656,3.747,2.439,6.281c-0.179,2.084-0.079,4.191-0.227,6.279c-0.091,1.283,0.156,2.411,0.854,3.465
		c0.098,0.147,0.181,0.304,0.338,0.57c-1.439-0.913-2.139-1.931-2.201-3.421c-0.111-2.663-0.175-5.331-0.185-7.997
		c-0.003-1.021-0.167-1.965-0.655-2.852c-0.745-1.352-1.497-2.699-2.246-4.049C112.873,70.714,112.906,70.7,112.938,70.686z"/>
</g>
</svg>
